<svg id="Group_104" data-name="Group 104" xmlns="http://www.w3.org/2000/svg" xmlns:xlink="http://www.w3.org/1999/xlink" width="284.133" height="74.161" viewBox="0 0 284.133 74.161">
  <defs>
    <clipPath id="clip-path">
      <rect id="Rectangle_184" data-name="Rectangle 184" width="284.133" height="74.161" fill="#ecfaff"/>
    </clipPath>
  </defs>
  <g id="Group_59" data-name="Group 59" clip-path="url(#clip-path)">
    <path id="Path_143" data-name="Path 143" d="M61.629,74.161H14.362A14.378,14.378,0,0,1,0,59.8V14.362A14.378,14.378,0,0,1,14.362,0H61.629A14.378,14.378,0,0,1,75.991,14.362V59.8A14.378,14.378,0,0,1,61.629,74.161M14.362,2.8A11.571,11.571,0,0,0,2.8,14.362V59.8A11.571,11.571,0,0,0,14.362,71.357H61.629A11.571,11.571,0,0,0,73.187,59.8V14.362A11.571,11.571,0,0,0,61.629,2.8Z" fill="#ecfaff"/>
    <path id="Path_144" data-name="Path 144" d="M91.064,108.724H79.72L77.4,115.891a.534.534,0,0,1-.579.427H71.09c-.336,0-.427-.183-.336-.549L80.574,87.5c.091-.3.183-.64.3-1.006a10.653,10.653,0,0,0,.183-1.982.3.3,0,0,1,.244-.336h7.9c.244,0,.366.092.4.244l11.131,31.41c.091.336,0,.488-.3.488H94.053a.46.46,0,0,1-.488-.336Zm-9.575-6.19h7.746c-.183-.64-.427-1.4-.7-2.2-.275-.823-.549-1.708-.823-2.623-.3-.945-.579-1.86-.884-2.806S86.246,93.081,86,92.2c-.244-.854-.457-1.647-.671-2.379H85.27a37.415,37.415,0,0,1-1.037,3.934c-.457,1.464-.915,2.988-1.4,4.513-.427,1.555-.884,2.989-1.342,4.269" transform="translate(-54.197 -64.508)" fill="#ecfaff"/>
    <path id="Path_145" data-name="Path 145" d="M215.3,81.39a3.773,3.773,0,0,1-2.714-1.067,3.961,3.961,0,0,1-1.037-2.805,3.589,3.589,0,0,1,1.1-2.714,3.9,3.9,0,0,1,2.714-1.067,3.652,3.652,0,0,1,2.775,1.067,4.192,4.192,0,0,1-.061,5.519A3.585,3.585,0,0,1,215.3,81.39m-3.415,26.469V84.379c0-.3.122-.427.4-.427h6.038c.275,0,.4.153.4.427V107.86c0,.336-.122.488-.4.488h-5.977a.427.427,0,0,1-.458-.488" transform="translate(-162.118 -56.507)" fill="#ecfaff"/>
    <path id="Path_146" data-name="Path 146" d="M506.9,74.161H459.634A14.378,14.378,0,0,1,445.272,59.8V14.362A14.378,14.378,0,0,1,459.634,0H506.9a14.378,14.378,0,0,1,14.362,14.362V59.8A14.378,14.378,0,0,1,506.9,74.161M459.634,2.8a11.571,11.571,0,0,0-11.558,11.558V59.8a11.571,11.571,0,0,0,11.558,11.558H506.9A11.571,11.571,0,0,0,518.459,59.8V14.362A11.571,11.571,0,0,0,506.9,2.8Z" transform="translate(-341.232)" fill="#ecfaff"/>
    <path id="Path_147" data-name="Path 147" d="M521.748,115.551V84.172c0-.214.091-.336.3-.336.518,0,1.006,0,1.708-.03.732-.031,1.494-.031,2.318-.061s1.708-.031,2.653-.061,1.86-.031,2.775-.031a17.928,17.928,0,0,1,6.282.945,10.889,10.889,0,0,1,4.086,2.5,9.709,9.709,0,0,1,2.226,3.476,11.672,11.672,0,0,1,.7,3.964,10.9,10.9,0,0,1-1.83,6.5,10.447,10.447,0,0,1-4.91,3.72,19.762,19.762,0,0,1-6.861,1.037c-.732,0-1.22,0-1.525-.03s-.732-.031-1.311-.031v9.789a.38.38,0,0,1-.336.427h-5.916c-.244,0-.366-.122-.366-.4M528.4,89.723V99.969c.427.03.823.061,1.189.061H531.2a11.392,11.392,0,0,0,3.507-.549,5.246,5.246,0,0,0,2.5-1.616,4.712,4.712,0,0,0,.945-3.141,5.021,5.021,0,0,0-.7-2.714,4.423,4.423,0,0,0-2.135-1.738,8.945,8.945,0,0,0-3.6-.61c-.793,0-1.494,0-2.074.03a6.98,6.98,0,0,0-1.25.031" transform="translate(-399.839 -64.108)" fill="#ecfaff"/>
    <path id="Path_148" data-name="Path 148" d="M650.132,122.914a10.789,10.789,0,0,0-2.927-1.037,16.061,16.061,0,0,0-3.415-.4,6.148,6.148,0,0,0-1.83.213,1.567,1.567,0,0,0-.945.61,1.617,1.617,0,0,0-.244.823,1.356,1.356,0,0,0,.3.793,3.442,3.442,0,0,0,1.037.823c.7.366,1.433.7,2.165,1.006a22.093,22.093,0,0,1,4.7,2.226,7.1,7.1,0,0,1,2.409,2.531,6.586,6.586,0,0,1,.7,3.141,7.1,7.1,0,0,1-1.189,4.056,7.643,7.643,0,0,1-3.415,2.714,13.973,13.973,0,0,1-5.52.976,21,21,0,0,1-4.147-.4,12.312,12.312,0,0,1-3.11-.976.6.6,0,0,1-.335-.579v-5.306a.331.331,0,0,1,.122-.274.232.232,0,0,1,.274.03,13.05,13.05,0,0,0,3.781,1.494,14.2,14.2,0,0,0,3.6.457,5.823,5.823,0,0,0,2.531-.427,1.417,1.417,0,0,0,.823-1.281,1.615,1.615,0,0,0-.732-1.22,12.921,12.921,0,0,0-2.988-1.433,18.672,18.672,0,0,1-4.33-2.2,7.9,7.9,0,0,1-2.318-2.592,6.542,6.542,0,0,1-.7-3.11,7.173,7.173,0,0,1,1.037-3.69,7.519,7.519,0,0,1,3.2-2.806,11.826,11.826,0,0,1,5.4-1.067,26.293,26.293,0,0,1,3.781.274,10.726,10.726,0,0,1,2.622.7.535.535,0,0,1,.3.274,1.536,1.536,0,0,1,.061.366v4.971a.375.375,0,0,1-.153.3.813.813,0,0,1-.549,0" transform="translate(-486.14 -88.913)" fill="#ecfaff"/>
    <path id="Path_149" data-name="Path 149" d="M904.411,74.161a13.966,13.966,0,0,1-9.845-4.066,14.162,14.162,0,0,1-4.287-10.167V14.353A14.44,14.44,0,0,1,904.631,0h47.408a14.44,14.44,0,0,1,14.354,14.353V59.806a14.37,14.37,0,0,1-14.354,14.353h-47.4c-.077,0-.155,0-.232,0M904.631,2.8a11.636,11.636,0,0,0-11.55,11.55V59.928a11.38,11.38,0,0,0,3.449,8.168,11.177,11.177,0,0,0,8.076,3.26h47.432a11.563,11.563,0,0,0,11.55-11.55V14.353A11.636,11.636,0,0,0,952.039,2.8Z" transform="translate(-682.26 0)" fill="#ecfaff"/>
    <path id="Path_150" data-name="Path 150" d="M1002.218,92.7c-1.466-1.588-4.277-2.322-8.309-2.322a41.64,41.64,0,0,0-6.72.611,34.631,34.631,0,0,1-3.91-4.521,40.12,40.12,0,0,1-2.444-3.788,40.077,40.077,0,0,0,2.2-10.752c0-3.3-1.344-6.842-5.01-6.842a3.6,3.6,0,0,0-3.055,1.833c-1.588,2.688-.977,8.186,1.589,13.929-.855,2.566-1.833,5.132-2.932,7.942a46.006,46.006,0,0,1-3.421,6.965c-3.788,1.466-11.729,5.132-12.463,9.164a3.112,3.112,0,0,0,1.1,3.177,4.52,4.52,0,0,0,3.3,1.1c4.765,0,9.53-6.6,12.829-12.341,1.833-.611,3.666-1.222,5.621-1.711,2.077-.489,4.032-.977,5.865-1.344,5.132,4.4,9.653,5.132,11.852,5.132,3.055,0,4.277-1.344,4.643-2.444a3.569,3.569,0,0,0-.733-3.788m-3.3,2.321c-.122.855-1.1,1.466-2.322,1.466a3.381,3.381,0,0,1-1.1-.122,17.547,17.547,0,0,1-6.72-3.421,32.931,32.931,0,0,1,4.887-.366,29.956,29.956,0,0,1,3.3.244c1.1.244,2.322.733,1.955,2.2m-21.871-27a1.779,1.779,0,0,1,1.1-.733c1.222,0,1.466,1.344,1.466,2.566a31.162,31.162,0,0,1-1.466,8.186c-2.077-5.254-1.833-8.8-1.1-10.019m6.842,23.459c-1.344.244-2.688.611-4.032.978-.977.244-1.955.611-3.055.855.489-1.1.978-2.2,1.466-3.177.611-1.344,1.1-2.688,1.589-4.032.489.733.855,1.344,1.344,1.955.855,1.222,1.833,2.322,2.688,3.421m-14.784,7.087c-3.055,4.887-6.109,8.064-7.82,8.064a1.31,1.31,0,0,1-.733-.244.985.985,0,0,1-.366-1.1c.244-1.833,3.787-4.4,8.919-6.72" transform="translate(-733.904 -49.882)" fill="#ecfaff"/>
  </g>
</svg>
