<svg xmlns="http://www.w3.org/2000/svg" xmlns:xlink="http://www.w3.org/1999/xlink" width="1920.752" height="392" viewBox="0 0 1920.752 392">
  <defs>
    <clipPath id="clip-path">
      <rect id="Rectangle_40" data-name="Rectangle 40" width="1920.752" height="392" fill="#d8f1fc"/>
    </clipPath>
  </defs>
  <g id="Group_91" data-name="Group 91" clip-path="url(#clip-path)">
    <path id="Path_372" data-name="Path 372" d="M.633,295.406v.613c124.595,1.284,255.71-12,341.677-67.823,37.691-24.47,62.768-54.637,86.045-85.743,23.243-31.061,44.691-63.059,75.16-91.238A201.741,201.741,0,0,1,567.337,11.7c25.032-9.543,52.948-14.026,81-9.01,30.746,5.5,53.965,21.284,73.8,37.186,102.31,82.013,157.316,183.188,235.752,275.212,19.983,23.441,42.736,47.148,77.789,61.791,58,24.225,138.165,17.339,196.575-6.482,58.319-23.784,98.824-61.47,133.389-99.635,22.946-25.34,44.516-51.788,77.279-72.314,32.681-20.474,79.592-34.417,124.38-28.047,38.858,5.526,65.867,23.694,91.666,43.771,25.9,20.16,50.584,42.246,84.67,55.527,38.34,14.939,88.178,17.231,129.5,5.954a157.078,157.078,0,0,0,47.829-21.721v-.91c-13.4,9.407-29.849,17.055-48.211,22.066-41.04,11.2-90.537,8.924-128.615-5.913-34-13.246-58.592-35.286-84.427-55.392-25.94-20.188-53.132-38.426-92.2-43.982-45.1-6.414-92.36,7.592-125.269,28.209-32.826,20.565-54.449,47.057-77.439,72.445-34.487,38.081-74.884,75.694-133.073,99.425-58.1,23.694-137.833,30.581-195.522,6.486-34.92-14.587-57.562-38.218-77.469-61.57-78.463-92.055-133.5-193.26-235.845-275.3C702.934,23.5,679.538,7.635,648.6,2.1c-28.312-5.063-56.493-.557-81.758,9.074a202.7,202.7,0,0,0-64.122,39.689c-30.5,28.207-51.972,60.233-75.236,91.323-23.231,31.044-48.247,61.155-85.863,85.577-85.785,55.7-216.635,68.925-340.986,67.639" transform="translate(-0.43 -0.003)" fill="#d8f1fc" fill-rule="evenodd"/>
    <path id="Path_373" data-name="Path 373" d="M.633,324.261v.613c122.624,1.425,251.56-11.06,336.637-64.582,23.729-14.933,42.5-32.087,59.013-50.275,35.319-38.891,60.3-82.514,101.572-119.361a201.221,201.221,0,0,1,70.958-40.579c22.579-7.225,47.178-10.189,71.878-5.805,30.268,5.369,53.248,20.665,72.971,36.045,101.61,79.323,156.677,176.811,235.753,264.8,20.155,22.426,43.409,44.947,78.393,58.8,57.875,22.906,137.254,15.793,195.65-7.4a317.538,317.538,0,0,0,46.6-23.094c35.077-21.077,63.055-46.862,88.1-72.785,23.385-24.229,45.384-49.451,78.227-68.933,32.761-19.435,79.287-32.539,123.766-26.048,32.312,4.718,56.609,17.964,78.931,33.625,22.4,15.715,42.806,33.863,67.259,48.33a194.064,194.064,0,0,0,30.878,14.928c38.328,14.357,87.763,16.326,128.873,5.079h0c21.146-5.823,39.927-14.878,54.874-26.016v-.948c-14.971,11.32-33.9,20.519-55.257,26.4-40.832,11.17-89.931,9.215-128-5.044A193.033,193.033,0,0,1,1707,287.162c-24.434-14.455-44.822-32.59-67.2-48.293-22.458-15.757-46.922-29.065-79.43-33.812-44.789-6.536-91.654,6.628-124.642,26.2-32.907,19.52-54.961,44.785-78.392,69.061-25,25.877-52.921,51.619-87.937,72.66h0A316.493,316.493,0,0,1,1222.947,396c-58.092,23.075-137.053,30.19-194.626,7.4-34.848-13.8-57.989-36.242-78.066-58.581-79.1-88.023-134.2-185.539-235.844-264.888-19.847-15.477-43-30.846-73.46-36.249-24.938-4.425-49.776-1.447-72.572,5.848A202.228,202.228,0,0,0,497.069,90.3h0c-41.29,36.863-66.287,80.5-101.622,119.41-16.471,18.141-35.189,35.252-58.856,50.146-84.9,53.409-213.572,65.832-335.957,64.405" transform="translate(-0.43 -33.145)" fill="#d8f1fc" fill-rule="evenodd"/>
    <path id="Path_374" data-name="Path 374" d="M.633,353.113v.614c120.661,1.565,247.421-10.118,331.6-61.342,23.459-14.283,42.12-30.7,58.574-48.1,35.219-37.207,60.4-78.923,101.4-114.185a201.78,201.78,0,0,1,70.116-38.818h0c22.24-6.9,46.431-9.708,70.723-5.431,29.788,5.241,52.54,20.045,72.143,34.9C806.1,197.382,861.258,291.2,940.955,375.148c20.336,21.419,44.082,42.745,78.978,55.8h0c57.76,21.587,136.351,14.246,194.734-8.324a336.368,336.368,0,0,0,46.758-22.367c35.318-20.336,63.726-45.028,89.257-69.754h0c23.8-23.119,46.254-47.115,79.176-65.553,32.832-18.4,78.972-30.663,123.154-24.05,32.114,4.814,56.494,17.837,78.985,33.131,22.567,15.346,43.23,32.978,67.835,46.957a197.643,197.643,0,0,0,30.978,14.382c38.317,13.774,87.379,15.478,128.246,4.2,24.206-6.679,45.477-17.343,61.908-30.454v-.988c-16.437,13.311-37.86,24.137-62.293,30.879-40.593,11.2-89.326,9.506-127.387-4.175h0a196.534,196.534,0,0,1-30.809-14.305h0c-24.583-13.967-45.225-31.586-67.773-46.918-22.623-15.384-47.166-28.467-79.47-33.309-44.486-6.659-90.956,5.663-124.014,24.187-32.987,18.474-55.493,42.512-79.344,65.677-25.488,24.684-53.842,49.335-89.1,69.636a335.368,335.368,0,0,1-46.612,22.3h0c-58.085,22.456-136.274,29.8-193.741,8.32-34.756-13.007-58.387-34.259-78.641-55.592C862.06,290.86,806.873,197.012,705.931,120.356h0C686.2,105.4,663.281,90.529,633.3,85.255c-24.525-4.318-48.951-1.5-71.4,5.471a202.807,202.807,0,0,0-70.47,39h0c-41.02,35.278-66.218,77.01-101.452,114.234-16.411,17.357-35.018,33.731-58.415,47.977-84,51.115-210.5,62.738-330.929,61.171" transform="translate(-0.43 -66.283)" fill="#d8f1fc" fill-rule="evenodd"/>
    <path id="Path_375" data-name="Path 375" d="M.633,381.961v.614c118.7,1.7,243.283-9.178,326.558-58.1,23.19-13.634,41.731-29.314,58.135-45.932,35.118-35.523,60.5-75.332,101.22-109.01a202.773,202.773,0,0,1,69.286-37.058h0c21.892-6.581,45.675-9.228,69.559-5.057,29.31,5.112,51.843,19.425,71.316,33.762C796.938,235.123,852.2,325.3,932.485,405.172c20.528,20.418,44.765,40.543,79.573,52.81h0c57.646,20.27,135.448,12.7,193.817-9.245a357.4,357.4,0,0,0,46.906-21.641c35.578-19.595,64.406-43.194,90.427-66.724h0c24.224-22.008,47.122-44.778,80.123-62.172h0c32.9-17.359,78.657-28.787,122.531-22.052,31.923,4.91,56.388,17.711,79.049,32.637,22.736,14.976,43.656,32.093,68.411,45.584a201.785,201.785,0,0,0,31.068,13.834c38.316,13.192,86.974,14.594,127.62,3.33,27.324-7.574,51.1-19.925,68.953-35.09v-1.028s.34-.287-.6.512c-17.773,15.15-41.485,27.488-68.743,35.044-40.375,11.19-88.711,9.8-126.773-3.307a200.706,200.706,0,0,1-30.9-13.761c-24.732-13.479-45.629-30.582-68.345-45.544-22.79-15.012-47.412-27.87-79.517-32.808h0c-44.173-6.781-90.248,4.7-123.375,22.176-33.069,17.43-56.025,40.24-80.3,62.292-25.978,23.49-54.753,47.052-90.269,66.613a356.32,356.32,0,0,1-46.765,21.577c-58.081,21.837-135.495,29.405-192.856,9.236-34.665-12.217-58.784-32.269-79.227-52.6-80.313-79.9-135.6-170.1-235.86-244.062h0c-19.6-14.427-42.3-28.808-71.792-33.953-24.113-4.211-48.126-1.55-70.228,5.094a203.813,203.813,0,0,0-69.639,37.238h0c-40.741,33.693-66.138,73.518-101.273,109.058h0c-16.36,16.573-34.847,32.211-57.973,45.807-83.1,48.819-207.426,59.642-325.9,57.937" transform="translate(-0.43 -99.419)" fill="#d8f1fc" fill-rule="evenodd"/>
    <path id="Path_376" data-name="Path 376" d="M.633,410.805v.614c116.751,1.841,239.145-8.241,321.517-54.857,22.92-12.985,41.341-27.928,57.7-43.761,35.018-33.839,60.6-71.741,101.04-103.835a204.136,204.136,0,0,1,68.455-35.3h0c21.554-6.259,44.929-8.747,68.4-4.682,28.831,4.984,51.136,18.805,70.489,32.62,99.531,71.253,154.94,157.8,235.78,233.584,20.73,19.426,45.438,38.341,80.178,49.817h0c57.521,18.95,134.536,11.153,192.889-10.166a380.866,380.866,0,0,0,47.053-20.914c35.837-18.853,65.085-41.359,91.6-63.693h0c24.654-20.9,47.992-42.442,81.062-58.793,32.975-16.319,78.342-26.91,121.92-20.053,31.731,5.006,56.282,17.584,79.115,32.143,22.907,14.607,44.086,31.208,69,44.212a205.278,205.278,0,0,0,31.158,13.287c38.294,12.61,86.559,13.706,126.982,2.456,30.5-8.489,56.808-22.6,76-39.886v-1.069c-19.15,17.522-45.621,31.83-76.385,40.392-40.158,11.177-88.107,10.089-126.15-2.438h0a204.136,204.136,0,0,1-30.988-13.216h0c-24.887-12.991-46.04-29.579-68.926-44.171-22.959-14.64-47.661-27.272-79.568-32.306-43.869-6.9-89.55,3.735-122.746,20.164-33.139,16.385-56.536,37.967-81.241,58.908-26.468,22.3-55.664,44.767-91.442,63.589h0A379.814,379.814,0,0,1,1196.6,474.31h0c-58.074,21.218-134.716,29.013-191.962,10.154-34.593-11.428-59.182-30.273-79.823-49.617-80.863-75.8-136.3-162.375-235.857-233.648h0c-19.476-13.9-41.945-27.789-70.958-32.8-23.7-4.1-47.3-1.6-69.059,4.716a205.191,205.191,0,0,0-68.809,35.471h0c-40.46,32.109-66.059,70.027-101.093,103.882h0c-16.31,15.789-34.676,30.691-57.532,43.64C239.3,402.626,117.137,412.649.633,410.805" transform="translate(-0.43 -132.551)" fill="#d8f1fc" fill-rule="evenodd"/>
    <path id="Path_377" data-name="Path 377" d="M1920.487,391.059c1.207-1.139.479-.454.479-.454V389.5c-20.4,19.728-49.414,35.877-83.421,45.38-39.95,11.161-87.5,10.381-125.547-1.569a208.763,208.763,0,0,1-31.079-12.672c-25.036-12.5-46.445-28.574-69.5-42.8-23.125-14.267-47.9-26.674-79.606-31.8-43.566-7.026-88.852,2.77-122.115,18.152-33.22,15.339-57.069,35.695-82.194,55.523-26.958,21.1-56.586,42.484-92.6,60.567h0a409.2,409.2,0,0,1-47.071,20.133c-58.079,20.6-133.948,28.622-191.089,11.071-34.5-10.638-59.56-28.267-80.4-46.629C834.959,393.163,779.335,310.2,680.477,241.617h0c-19.355-13.376-41.593-26.769-70.123-31.656-23.287-4-46.475-1.654-67.891,4.339A206.886,206.886,0,0,0,474.5,248h0c-40.191,30.524-65.99,66.535-100.924,98.706a281.724,281.724,0,0,1-57.09,41.471C235.167,432.4,115.172,441.628.633,439.647v.614c114.779,1.978,235-7.3,316.476-51.613h0a282.539,282.539,0,0,0,57.257-41.589c34.918-32.155,60.7-68.15,100.869-98.66a205.807,205.807,0,0,1,67.614-33.537h0c21.215-5.936,44.183-8.266,67.251-4.308h0c28.352,4.857,50.428,18.186,69.663,31.478C778.6,310.595,834.2,393.541,915.558,465.21c20.931,18.441,46.111,36.138,80.762,46.822h0c57.406,17.633,133.633,9.608,191.981-11.087a410.357,410.357,0,0,0,47.2-20.188c36.076-18.112,65.754-39.524,92.756-60.662h0c25.073-19.787,48.86-40.106,82.01-55.413h0c33.046-15.281,78.029-25.034,121.309-18.054,31.535,5.1,56.169,17.457,79.172,31.649,23.076,14.237,44.51,30.322,69.572,42.838a209.906,209.906,0,0,0,31.248,12.74c38.293,12.028,86.154,12.814,126.364,1.58,33.469-9.352,62.129-25.11,82.554-44.378" transform="translate(-0.43 -165.681)" fill="#d8f1fc" fill-rule="evenodd"/>
    <path id="Path_378" data-name="Path 378" d="M1.057,468.491l-.47-.009v.614c112.805,2.114,230.855-6.364,311.425-48.369h0a284.709,284.709,0,0,0,56.827-39.417c34.818-30.471,60.8-64.559,100.688-93.484a208.165,208.165,0,0,1,66.785-31.777h0c20.868-5.614,43.428-7.785,66.088-3.934h0c27.884,4.728,49.722,17.566,68.846,30.337,98.133,65.874,153.975,145.235,235.8,212.773,21.153,17.464,46.784,33.935,81.366,43.827h0c57.281,16.315,132.708,8.062,191.052-12.008a442.593,442.593,0,0,0,47.347-19.461c36.335-17.37,66.5-37.65,93.914-57.631,25.582-18.64,49.74-37.77,82.969-52.033h0c33.118-14.243,77.715-23.158,120.689-16.056,31.344,5.2,56.063,17.331,79.237,31.155,23.245,13.867,44.935,29.437,70.148,41.465a215.355,215.355,0,0,0,31.339,12.192c38.281,11.445,85.748,11.919,125.736.707,37.02-10.381,68.429-28.2,90.078-49.919v-1.152c-21.572,21.99-53.155,40.045-90.468,50.508-39.732,11.141-86.9,10.672-124.934-.7a214.177,214.177,0,0,1-31.17-12.128c-25.185-12.015-46.848-27.57-70.067-41.422-23.292-13.9-48.15-26.077-79.654-31.3-43.252-7.148-88.142,1.807-121.475,16.141-33.3,14.293-57.519,33.459-83.156,52.138h0c-27.37,19.95-57.488,40.2-93.767,57.544h0A441.511,441.511,0,0,1,1179,526.5c-58.085,19.98-133.171,28.229-190.2,11.988-34.43-9.848-59.937-26.255-81-43.642-81.842-67.554-137.7-146.931-235.861-212.821h0c-19.245-12.851-41.24-25.75-69.3-30.508-22.874-3.888-45.648-1.705-66.712,3.961A209.27,209.27,0,0,0,468.8,287.419h0c-39.911,28.94-65.909,63.042-100.744,93.529a283.849,283.849,0,0,1-56.658,39.3C231.1,462.113,113.5,470.574,1.057,468.491" transform="translate(-0.384 -198.806)" fill="#d8f1fc" fill-rule="evenodd"/>
    <path id="Path_379" data-name="Path 379" d="M.633,497.337v.614c110.846,2.249,226.711-5.429,306.383-45.124h0A287.978,287.978,0,0,0,363.4,415.581c34.717-28.787,60.9-60.968,100.508-88.309a212.13,212.13,0,0,1,65.956-30.017c20.54-5.264,42.682-7.305,64.935-3.56h0c27.406,4.6,49.015,16.947,68.02,29.2,97.433,63.184,153.567,138.979,235.8,202.367,21.395,16.494,47.467,31.731,81.96,40.832h0c57.166,15,131.8,6.516,190.133-12.929a482.042,482.042,0,0,0,47.493-18.734c36.594-16.629,67.191-35.807,95.082-54.6,26.012-17.522,50.609-35.434,83.908-48.653h0c33.2-13.2,77.413-21.283,120.081-14.057,31.152,5.294,55.957,17.2,79.3,30.661,23.416,13.5,45.365,28.552,70.735,40.093a219.633,219.633,0,0,0,31.428,11.646c38.269,10.863,85.333,11.021,125.1-.169,40.358-11.354,74.346-31.12,97.122-55.135v-1.194c-22.674,24.3-56.844,44.326-97.513,55.768-39.516,11.12-86.283,10.964-124.312.17h0a218.459,218.459,0,0,1-31.259-11.584h0c-25.339-11.527-47.259-26.566-70.648-40.048-23.46-13.523-48.4-25.48-79.7-30.8h0c-42.937-7.271-87.432.843-120.843,14.13-33.371,13.248-58.031,31.193-84.1,48.753-27.851,18.765-58.4,37.917-94.941,54.522h0a480.894,480.894,0,0,1-47.379,18.689c-58.079,19.361-132.393,27.837-189.315,12.906-34.339-9.06-60.286-24.235-81.584-40.655-82.251-63.4-138.4-139.21-235.857-202.407h0c-19.124-12.325-40.887-24.73-68.462-29.359-22.461-3.78-44.812-1.73-65.544,3.584a213.262,213.262,0,0,0-66.3,30.169h0c-39.631,27.356-65.83,59.551-100.565,88.353h0a287.118,287.118,0,0,1-56.217,37.136C226.9,491.96,111.256,499.587.633,497.337" transform="translate(-0.43 -231.951)" fill="#d8f1fc" fill-rule="evenodd"/>
    <path id="Path_380" data-name="Path 380" d="M.633,526.165c108.68,2.383,222.144-4.449,300.761-41.756a291.966,291.966,0,0,0,55.786-34.968h0c34.625-27.118,61.025-57.405,100.375-83.176h0a217.384,217.384,0,0,1,65.471-28.4c20.389-4.984,42.327-6.879,64.374-3.206,27.093,4.5,48.625,16.411,67.618,28.211h0c96.762,60.5,153.282,132.76,235.861,191.992a231.407,231.407,0,0,0,82.172,37.669c56.816,13.623,130.359,4.919,188.433-13.822,16.824-5.428,32.6-11.512,47.533-17.968h0c36.793-15.865,67.784-33.919,96.117-51.5,26.5-16.44,51.589-33.165,85.051-45.367,33.477-12.241,77.567-19.512,120.21-12.119,31.1,5.416,56.115,17.147,79.741,30.3,23.556,13.112,45.729,27.635,71.218,38.674h0a224.476,224.476,0,0,0,31.349,11.039h0c38.031,10.218,84.392,10.058,123.7-1.038,44.07-12.438,80.84-34.484,104.559-61.161V470.8s.48-.527-.294.324c-23.848,26.223-60.309,47.865-103.873,60.161-39.552,11.165-86.2,11.324-124.468,1.042a225.642,225.642,0,0,1-31.518-11.1c-25.52-11.052-47.725-25.591-71.31-38.72-23.515-13.09-48.4-24.777-79.359-30.168-42.382-7.347-86.2-.107-119.473,12.059h0c-33.389,12.176-58.416,28.87-84.857,45.274-28.371,17.6-59.407,35.681-96.249,51.568-14.967,6.47-30.777,12.568-47.639,18.008-58.313,18.818-132.163,27.528-189.213,13.849h0a232.492,232.492,0,0,1-82.553-37.836C807.593,496.045,751.087,423.8,654.343,363.305c-18.876-11.728-40.258-23.583-67.185-28.055h0c-21.845-3.639-43.581-1.753-63.783,3.186a216.232,216.232,0,0,0-65.127,28.258c-39.329,25.757-65.71,56.031-100.317,83.135A292.866,292.866,0,0,1,301.973,484.9h0C223.2,522.281,109.527,529.16.633,526.779Z" transform="translate(-0.43 -265.069)" fill="#d8f1fc" fill-rule="evenodd"/>
    <path id="Path_381" data-name="Path 381" d="M.633,554.986v.614c106.924,2.514,218.419-3.565,296.3-38.63h0a298.5,298.5,0,0,0,55.519-32.9c34.506-25.419,61.007-53.842,100.146-77.959a219.652,219.652,0,0,1,64.3-26.5c19.854-4.613,41.172-6.344,62.61-2.811h0c26.46,4.345,47.613,15.709,66.37,26.915,96.046,57.8,153,126.51,235.831,181.555,21.927,14.577,48.81,27.324,83.145,34.84h0c56.924,12.362,129.984,3.424,188.282-14.769,16.86-5.259,32.728-11.113,47.795-17.281,37.091-15.145,68.545-32.121,97.4-48.536,26.87-15.286,52.338-30.763,85.806-41.9h0c33.346-11.127,76.779-17.53,118.856-10.06,30.765,5.487,55.739,16.952,79.425,29.673,23.755,12.759,46.216,26.781,71.887,37.346a231.13,231.13,0,0,0,31.618,10.551c38.245,9.7,84.49,9.222,123.839-1.916,47.181-13.357,86.371-37.191,111.2-65.957v-1.283s.412-.481-.326.383c-24.7,28.924-63.951,52.9-111.269,66.3-39.11,11.07-85.075,11.547-123.088,1.907h0a229.879,229.879,0,0,1-31.45-10.5h0c-25.638-10.551-48.066-24.558-71.789-37.3-23.792-12.779-48.886-24.285-79.788-29.8h0c-42.328-7.515-86.021-1.086-119.565,10.107-33.542,11.157-59.073,26.662-86,41.982-28.824,16.4-60.238,33.351-97.283,48.477h0c-15.036,6.156-30.872,12-47.7,17.246-58.07,18.122-130.841,27.053-187.542,14.74-34.177-7.481-60.934-20.173-82.761-34.683h0C799.565,529.793,742.6,461.08,646.538,403.268h0c-18.872-11.275-40.171-22.692-66.791-27.063-21.634-3.565-43.149-1.826-63.185,2.829a220.83,220.83,0,0,0-64.639,26.634c-39.161,24.13-65.68,52.567-100.206,78h0a297.568,297.568,0,0,1-55.345,32.8c-77.728,35-189.017,41.032-295.737,38.517" transform="translate(-0.43 -298.182)" fill="#d8f1fc" fill-rule="evenodd"/>
    <path id="Path_382" data-name="Path 382" d="M.633,583.8v.614c104.961,2.644,214.261-2.635,291.252-35.382h0A306.124,306.124,0,0,0,346.963,518.3c34.407-23.735,61.1-50.259,99.966-72.784a225.324,225.324,0,0,1,63.47-24.74c19.507-4.287,40.428-5.863,61.459-2.437h0c25.982,4.217,46.937,15.065,65.545,25.774C732.943,499.1,790.263,564.4,873.242,615.265c22.238,13.628,49.492,25.12,83.737,31.843h0c56.808,11.044,129.079,1.878,187.361-15.69,16.868-5.079,32.774-10.689,47.94-16.555,37.349-14.4,69.231-30.277,98.569-45.5,27.3-14.168,53.208-28.428,86.747-38.517h0c33.43-10.089,76.478-15.654,118.25-8.061,30.574,5.583,55.633,16.825,79.492,29.179,23.926,12.389,46.646,25.9,72.474,35.973a237.276,237.276,0,0,0,31.7,10c38.243,9.117,84.074,8.319,123.21-2.791,50.662-14.383,92.479-40.331,118.246-71.551v-1.329c-25.589,31.564-67.609,57.832-118.64,72.32-38.9,11.044-84.462,11.84-122.477,2.777h0a236.015,236.015,0,0,1-31.53-9.951h0c-25.792-10.063-48.476-23.554-72.369-35.926-23.96-12.406-49.133-23.687-79.836-29.293h0c-42.011-7.637-85.308-2.05-118.93,8.1-33.612,10.111-59.583,24.4-86.945,38.6-29.305,15.21-61.151,31.068-98.459,45.455h0c-15.138,5.855-31.015,11.455-47.852,16.524-58.066,17.5-130.065,26.661-186.663,15.658-34.087-6.692-61.214-18.133-83.35-31.7C790.927,563.956,733.6,498.652,638.053,443.659c-18.72-10.774-39.817-21.672-65.955-25.914-21.221-3.457-42.331-1.875-62.014,2.452a226.527,226.527,0,0,0-63.806,24.866c-38.89,22.539-65.6,49.074-100.026,72.822h0a305.175,305.175,0,0,1-54.9,30.634C214.5,581.2,105.4,586.442.633,583.8" transform="translate(-0.43 -331.287)" fill="#d8f1fc" fill-rule="evenodd"/>
    <path id="Path_383" data-name="Path 383" d="M.2,612.6v.614l.326.009c102.894,2.755,209.863-1.749,285.881-32.142h0a316.279,316.279,0,0,0,54.638-28.555c34.316-22.052,61.2-46.676,99.785-67.61a232.271,232.271,0,0,1,62.643-22.981c19.169-3.963,39.674-5.383,60.3-2.063h0c25.514,4.089,46.242,14.443,64.731,24.633,94.85,52.287,152.813,114.065,235.845,160.745,22.569,12.685,50.163,22.915,84.337,28.846h0c56.682,9.727,128.164.334,186.429-16.61,16.866-4.9,32.822-10.264,48.085-15.828,37.6-13.661,69.906-28.434,99.723-42.473,27.731-13.051,54.089-26.093,87.707-35.138h0c33.5-9.05,76.167-13.778,117.645-6.062,30.382,5.679,55.525,16.7,79.553,28.686,24.094,12.02,47.067,25.011,73.046,34.6a243.387,243.387,0,0,0,31.8,9.456c38.23,8.534,83.657,7.415,122.57-3.665,54-15.371,98.328-43.339,125-76.886.905-1.139.294-.371.294-.371V548.43s.033-.041-.325.418c-26.473,33.89-71,62.18-125.361,77.655-38.686,11.015-83.848,12.131-121.855,3.646h0a242.133,242.133,0,0,1-31.631-9.407h0c-25.941-9.575-48.877-22.55-72.935-34.552-24.124-12.035-49.374-23.09-79.877-28.792h0c-41.705-7.758-84.606-3.014-118.294,6.086-33.692,9.065-60.114,22.13-87.905,35.21h0c-29.788,14.025-62.067,28.785-99.628,42.433h0c-15.239,5.555-31.168,10.912-48.007,15.8h0c-58.062,16.884-129.29,26.268-185.773,16.576-34.017-5.9-61.485-16.087-83.95-28.714-83.034-46.681-141-108.46-235.852-160.749-18.6-10.251-39.463-20.651-65.127-24.765-20.807-3.349-41.494-1.923-60.834,2.074a233.507,233.507,0,0,0-62.972,23.1C401.6,505.4,374.7,530.031,340.36,552.095h0a315.27,315.27,0,0,1-54.465,28.466C209.933,610.932,103,615.374.2,612.6" transform="translate(0 -364.383)" fill="#d8f1fc" fill-rule="evenodd"/>
    <path id="Path_384" data-name="Path 384" d="M.633,641.391v.614c101.037,2.9,205.957-.783,281.15-28.883h0a328.39,328.39,0,0,0,54.206-26.382c34.216-20.368,61.287-43.092,99.605-62.436a240.778,240.778,0,0,1,61.817-21.222c18.823-3.638,38.93-4.9,59.148-1.689h0c25.036,3.961,45.536,13.822,63.9,23.493,94.173,49.586,152.9,107.831,235.874,150.34,22.919,11.743,50.833,20.711,84.916,25.848h0c56.565,8.41,127.257-1.211,185.506-17.529,16.865-4.718,32.878-9.84,48.241-15.1,37.843-12.919,70.571-26.591,100.876-39.441,28.15-11.934,54.959-23.757,88.658-31.76h0c33.578-8.011,75.848-11.9,117.031-4.062,30.191,5.775,55.42,16.573,79.619,28.192,24.263,11.65,47.493,24.126,73.623,33.227a250.412,250.412,0,0,0,31.886,8.908c38.218,7.953,83.231,6.51,121.951-4.539,57.764-16.488,104.886-46.824,132.326-83.071v-1.425c-27.208,36.631-74.549,67.331-132.722,83.937-38.5,10.986-83.254,12.423-121.254,4.515h0a249.063,249.063,0,0,1-31.721-8.863h0c-26.09-9.087-49.28-21.546-73.506-33.178-24.29-11.662-49.619-22.493-79.923-28.29h0c-41.4-7.88-83.894-3.977-117.648,4.076-33.772,8.02-60.644,19.863-88.856,31.824-30.281,12.84-62.983,26.5-100.8,39.411h0c-15.341,5.255-31.332,10.369-48.172,15.081-58.059,16.265-128.515,25.876-184.9,17.493-33.928-5.114-61.717-14.039-84.531-25.729C773.967,632.242,715.244,574,621.074,524.414c-18.467-9.727-39.1-19.632-64.28-23.616-20.393-3.242-40.676-1.972-59.663,1.7a242.036,242.036,0,0,0-62.137,21.329c-38.34,19.354-65.43,42.09-99.666,62.469h0a327.361,327.361,0,0,1-54.036,26.3c-75.057,28.049-179.795,31.7-280.66,28.8" transform="translate(-0.43 -397.469)" fill="#d8f1fc" fill-rule="evenodd"/>
    <path id="Path_385" data-name="Path 385" d="M.633,670.17c98.895,3.026,201.462.174,275.64-25.556a342.6,342.6,0,0,0,53.6-24.134h0c34.136-18.695,61.425-39.529,99.495-57.291a252.3,252.3,0,0,1,61.291-19.56c18.643-3.341,38.512-4.453,58.491-1.32,24.688,3.855,45.1,13.263,63.442,22.467,93.466,46.881,153.076,101.566,235.854,139.92,23.205,10.754,51.285,18.419,85.125,22.745,56.277,7.072,125.961-2.767,184.016-18.412,16.843-4.532,32.885-9.4,48.328-14.359h0c38.077-12.171,71.192-24.735,101.977-36.388,28.642-10.841,55.954-21.464,89.8-28.438,33.83-7.007,75.926-10.068,117.01-2.066,30.105,5.892,55.516,16.5,79.975,27.788,24.4,11.262,47.843,23.205,74.082,31.8h0a256.161,256.161,0,0,0,31.8,8.319c38,7.329,82.351,5.571,120.643-5.385,61.821-17.691,111.846-50.688,139.768-89.915v1.476s.474-.647-.3.415c-28.24,38.643-77.9,71.08-139.069,88.584-38.506,11.018-83.1,12.783-121.32,5.413a257.5,257.5,0,0,1-31.966-8.362c-26.281-8.613-49.77-20.573-74.206-31.853-24.374-11.251-49.69-21.826-79.691-27.7-40.879-7.962-82.766-4.91-116.427,2.063h0c-33.769,6.959-61.018,17.563-89.6,28.381-30.8,11.66-63.937,24.232-102.037,36.409-15.461,4.96-31.523,9.838-48.386,14.375-58.232,15.693-128.134,25.543-184.582,18.449h0c-33.991-4.345-62.194-12.049-85.5-22.851-82.787-38.359-142.408-93.048-235.884-139.934-18.242-9.152-38.524-18.519-63.074-22.352h0c-19.811-3.107-39.512-2-58,1.314a251,251,0,0,0-60.981,19.464c-38.048,17.752-65.319,38.577-99.435,57.261a343.677,343.677,0,0,1-53.765,24.208h0c-74.3,25.772-177.028,28.658-276.1,25.631Z" transform="translate(-0.43 -430.543)" fill="#d8f1fc" fill-rule="evenodd"/>
    <path id="Path_386" data-name="Path 386" d="M.633,698.931v.615c97.1,3.15,197.642,1.062,271.055-22.379h0a363.7,363.7,0,0,0,53.323-22.034c34.016-17,61.488-35.927,99.256-52.088a263.968,263.968,0,0,1,60.157-17.706c18.139-2.988,37.434-3.941,56.838-.94h0c24.082,3.706,44.128,12.579,62.261,21.212C696.313,649.8,756.957,700.9,839.417,735.14c23.74,9.856,52.181,16.3,86.1,19.853h0c56.322,5.777,125.433-4.3,183.659-19.368,16.851-4.357,32.971-8.991,48.52-13.649,38.346-11.436,71.908-22.908,103.2-33.378,29-9.7,56.692-19.087,90.552-25h0c33.736-5.933,75.24-8.147,115.825-.062,29.8,5.968,55.205,16.32,79.749,27.2,24.6,10.911,48.35,22.355,74.783,30.48a264.792,264.792,0,0,0,32.065,7.814c38.2,6.789,82.386,4.7,120.679-6.286,65.058-18.661,117.548-53.589,146.416-95.041v-1.529c-28.569,41.871-81.3,77.217-146.813,96.01-38.085,10.925-82.028,13.007-120.022,6.255h0a263.491,263.491,0,0,1-31.9-7.775h0c-26.387-8.111-50.088-19.539-74.651-30.431-24.623-10.918-50.111-21.3-80.012-27.286h0c-40.777-8.123-82.476-5.9-116.371.056-33.931,5.929-61.683,15.329-90.745,25.052-31.277,10.466-64.827,21.934-103.158,33.366h0c-15.534,4.654-31.639,9.284-48.473,13.636h0c-58.062,15.026-126.975,25.091-183.139,19.331-33.771-3.537-62.092-9.947-85.729-19.761C757.5,700.389,696.874,649.3,604.1,605.12c-18.234-8.68-38.4-17.591-62.613-21.317-19.565-3.026-39.02-2.071-57.309.942a265.281,265.281,0,0,0-60.454,17.791c-37.789,16.17-65.279,35.1-99.314,52.115h0a362.577,362.577,0,0,1-53.158,21.967C197.965,700.019,97.59,702.08.633,698.931" transform="translate(-0.43 -463.601)" fill="#d8f1fc" fill-rule="evenodd"/>
    <path id="Path_387" data-name="Path 387" d="M.633,727.674v.615c95.158,3.271,193.49,1.978,266.005-19.126h0A393.144,393.144,0,0,0,319.518,689.3c33.866-15.362,61.588-32.343,99.076-46.913a280.268,280.268,0,0,1,59.334-15.948c17.8-2.664,36.691-3.461,55.689-.566h0c23.606,3.578,43.424,11.959,61.44,20.072,92.093,41.487,153.9,88.946,235.906,119.122,24.2,8.9,52.859,14.095,86.686,16.855h0c56.2,4.462,124.526-5.844,182.734-20.287,16.849-4.176,33.017-8.567,48.675-12.923,38.592-10.694,72.561-21.069,104.348-30.347,29.412-8.589,57.563-16.753,91.5-21.625h0c33.812-4.893,74.932-6.269,115.213,1.939,59.3,12.144,102.072,40.56,155.177,55.815a273.25,273.25,0,0,0,32.154,7.266c38.19,6.207,81.97,3.791,120.059-7.16,68.769-19.772,123.965-57.073,153.451-101.184v-1.583c-29.159,44.556-84.6,82.3-153.849,102.208-37.888,10.892-81.434,13.3-119.422,7.124h0a271.943,271.943,0,0,1-31.994-7.231h0c-53.136-15.265-95.945-43.69-155.279-55.84h0c-40.46-8.244-81.762-6.867-115.723-1.953-34.01,4.882-62.221,13.059-91.693,21.666-31.782,9.276-65.745,19.65-104.331,30.343h0c-15.646,4.352-31.8,8.74-48.639,12.913-58.06,14.406-126.2,24.7-182.262,20.25-33.684-2.748-62.227-7.91-86.324-16.777-81.98-30.168-143.765-77.617-235.832-119.092-18.111-8.156-38.043-16.572-61.774-20.168-19.15-2.918-38.191-2.12-56.136.565a281.583,281.583,0,0,0-59.616,16.022c-37.509,14.578-65.249,31.567-99.134,46.937a391.937,391.937,0,0,1-52.721,19.8C193.83,729.676,95.64,730.944.633,727.674" transform="translate(-0.43 -496.641)" fill="#d8f1fc" fill-rule="evenodd"/>
    <path id="Path_388" data-name="Path 388" d="M.633,756.39V757c93.173,3.391,189.324,2.894,260.954-15.871h0a428.193,428.193,0,0,0,52.435-17.686c33.767-13.682,61.7-28.759,98.907-41.739h0a300.466,300.466,0,0,1,58.5-14.19c17.456-2.34,35.948-2.98,54.541-.191h0c23.129,3.45,42.72,11.338,60.608,18.932,91.4,38.789,154.512,82.541,235.939,108.716,24.689,7.938,53.517,11.889,87.26,13.857h0c56.089,3.145,123.62-7.387,181.811-21.206,16.847-4,33.063-8.144,48.819-12.2,38.848-9.953,73.223-19.232,105.5-27.317,29.843-7.476,58.446-14.417,92.457-18.247h0c33.9-3.853,74.624-4.391,114.611,3.941,58.912,12.336,102.413,39.666,155.822,53.948a281.6,281.6,0,0,0,32.253,6.719,292.079,292.079,0,0,0,119.419-8.033c72.525-20.9,130.449-60.623,160.5-107.445v-1.64c-29.678,47.283-87.859,87.477-160.895,108.526a290.567,290.567,0,0,1-118.8,7.994h0a280.159,280.159,0,0,1-32.1-6.687h0c-53.433-14.288-96.957-41.624-155.895-53.965h0c-40.153-8.366-81.047-7.831-115.082-3.962-34.08,3.837-62.741,10.789-92.643,18.28-32.276,8.086-66.653,17.365-105.5,27.319h0c-15.748,4.052-31.956,8.2-48.795,12.191-58.057,13.786-125.428,24.307-181.386,21.169-33.607-1.96-62.322-5.888-86.911-13.793-81.395-26.165-144.477-69.9-235.838-108.678-17.979-7.633-37.678-15.552-60.924-19.019-18.736-2.811-37.371-2.17-54.962.188a301.821,301.821,0,0,0-58.768,14.253c-37.228,12.987-65.177,28.07-98.962,41.76a426.929,426.929,0,0,1-52.285,17.636C189.69,759.3,93.671,759.779.633,756.39" transform="translate(-0.43 -529.656)" fill="#d8f1fc" fill-rule="evenodd"/>
    <path id="Path_389" data-name="Path 389" d="M1920.965,688.874c-30.132,50.052-91.076,92.745-167.94,114.947a298.631,298.631,0,0,1-118.192,8.864h0a288.756,288.756,0,0,1-32.177-6.143h0c-53.738-13.309-97.978-39.558-156.51-52.09h0c-39.846-8.487-80.342-8.792-114.442-5.969-34.158,2.791-63.269,8.517-93.591,14.894-32.77,6.894-67.582,15.08-106.687,24.295h0c-15.84,3.751-32.111,7.654-48.951,11.469h0c-58.054,13.167-124.654,23.915-180.5,22.089-33.531-1.17-62.4-3.883-87.52-10.809-80.681-22.24-145.169-62.191-235.825-98.266-17.857-7.108-37.321-14.531-60.093-17.869-18.321-2.7-36.541-2.22-53.777-.189a328.456,328.456,0,0,0-57.927,12.483c-36.947,11.4-65.1,24.575-98.78,36.583a471.6,471.6,0,0,1-51.859,15.471C185.56,775.03,91.742,774.717.633,771.21v.615c91.227,3.508,185.165,3.8,255.892-12.615h0a472.911,472.911,0,0,0,52-15.512c33.667-12,61.8-25.175,98.73-36.566A327.046,327.046,0,0,1,464.935,694.7h0c17.11-2.017,35.2-2.5,53.383.183h0c22.663,3.322,42.027,10.718,59.8,17.791,90.7,36.094,155.231,76.058,235.953,98.309,25.217,6.952,54.193,9.684,87.852,10.859h0c55.96,1.83,122.7-8.929,180.875-22.124,16.845-3.816,33.119-7.719,48.964-11.471,39.093-9.212,73.894-17.4,106.654-24.287,30.264-6.365,59.318-12.082,93.411-14.868h0c33.972-2.813,74.316-2.513,114.01,5.942,58.517,12.529,102.743,38.774,156.467,52.08a290.146,290.146,0,0,0,32.332,6.172,300.147,300.147,0,0,0,118.788-8.907c76.332-22.048,137.011-64.243,167.541-113.806Z" transform="translate(-0.43 -548.777)" fill="#d8f1fc" fill-rule="evenodd"/>
    <path id="Path_390" data-name="Path 390" d="M1920.965,650.962v1.762s.082-.136-.185.312c-31.03,52.214-94.379,96.8-174.4,119.963a308.832,308.832,0,0,1-118.147,9.779,299.268,299.268,0,0,1-32.431-5.624c-54.029-12.332-98.981-37.491-157.113-50.212-39.391-8.579-79.353-9.717-113.4-7.945h0c-34.174,1.742-63.689,6.235-94.364,11.489-33.256,5.7-68.463,12.789-107.812,21.259-15.942,3.45-32.265,7.11-49.107,10.746-58.156,12.569-124.107,23.557-179.95,23.042h0c-33.575-.383-62.648-1.919-88.433-7.861-79.916-18.42-145.971-54.5-235.968-87.9-17.663-6.553-36.792-13.457-58.978-16.652h0c-17.781-2.577-35.463-2.252-52.237-.558a361.8,361.8,0,0,0-56.862,10.674c-36.639,9.8-64.974,21.071-98.552,31.392-15.641,4.809-32.424,9.449-51.553,13.338h0C181.635,742.033,89.9,740.945.633,737.321v-.615c89.151,3.622,180.786,4.726,250.546-9.329C270.26,723.5,287,718.869,302.6,714.072c33.593-10.325,61.942-21.6,98.6-31.4a363.223,363.223,0,0,1,57.085-10.714c16.891-1.706,34.7-2.029,52.6.566,22.287,3.209,41.508,10.137,59.252,16.72,89.94,33.377,155.944,69.446,235.81,87.854,25.694,5.921,54.665,7.443,88.12,7.824,55.742.515,121.571-10.462,179.623-23.009,16.843-3.636,33.165-7.3,49.107-10.746h0c39.371-8.475,74.6-15.57,107.871-21.27,30.731-5.264,60.3-9.763,94.539-11.508,34.164-1.779,74.263-.633,113.792,7.976h0c58.136,12.722,103.092,37.882,157.125,50.215h0a297.859,297.859,0,0,0,32.277,5.6h0a307.322,307.322,0,0,0,117.572-9.734c80.74-23.372,144.457-68.614,174.986-121.478" transform="translate(-0.43 -518.575)" fill="#d8f1fc" fill-rule="evenodd"/>
    <path id="Path_391" data-name="Path 391" d="M1920.965,612.45c-30.854,55.724-97.361,103.57-182.022,128.131a316.823,316.823,0,0,1-116.972,10.605h0a307.8,307.8,0,0,1-32.369-5.055h0c-54.328-11.356-100-35.426-157.741-48.339h0c-39.211-8.729-78.912-10.717-113.151-9.983-34.306.7-64.325,3.97-95.476,8.123-33.779,4.5-69.42,10.509-109.045,18.244h0c-16.044,3.15-32.429,6.567-49.274,10.023-58.05,11.927-123.108,23.131-178.737,23.93-33.38.408-62.455.044-88.722-4.84-78.98-14.679-146.581-46.761-235.8-77.443-17.621-6.058-36.607-12.492-58.409-15.571-17.49-2.487-34.89-2.323-51.427-.943a410.843,410.843,0,0,0-56.241,8.946c-36.365,8.22-64.922,17.585-98.414,26.227-15.545,4.013-32.179,7.909-50.993,11.139C177.282,707.35,87.84,705.457.633,701.724v.615c87.307,3.735,176.832,5.616,245.783-6.1h0c18.856-3.238,35.526-7.141,51.105-11.163,33.479-8.639,62.024-18,98.375-26.218a409.391,409.391,0,0,1,56.043-8.916c16.429-1.371,33.715-1.538,51.091.933h0c21.711,3.066,40.613,9.478,58.16,15.511,89.292,30.705,156.953,62.8,235.993,77.492,26.353,4.9,55.522,5.274,89.012,4.865h0c55.715-.8,120.876-12.014,179.014-23.959,16.84-3.455,33.221-6.872,49.261-10.02,39.594-7.729,75.207-13.73,108.96-18.23,31.1-4.146,61.063-7.412,95.309-8.111h0c34.133-.732,73.711,1.247,112.8,9.949,57.747,12.914,103.425,36.987,157.759,48.343a309.278,309.278,0,0,0,32.519,5.078,318.329,318.329,0,0,0,117.526-10.653c84.075-24.391,150.3-71.681,181.621-126.861Z" transform="translate(-0.43 -487.895)" fill="#d8f1fc" fill-rule="evenodd"/>
    <path id="Path_392" data-name="Path 392" d="M1920.965,573.427c-31.107,58.617-100.428,109.12-189.068,134.888a327.057,327.057,0,0,1-116.352,11.475h0a317.087,317.087,0,0,1-32.46-4.51h0c-54.634-10.379-101.021-33.362-158.355-46.465h0c-38.914-8.85-78.208-11.678-112.511-11.988-34.385-.346-64.863,1.694-96.423,4.738-34.283,3.306-70.349,8.222-110.229,15.218h0c-16.146,2.849-32.583,6.023-49.43,9.3-58.047,11.306-122.345,22.739-177.862,24.85-33.3,1.2-62.444,1.955-89.325-1.855-78.044-11.062-147.281-39.044-235.8-67.033-17.5-5.533-36.239-11.471-57.566-14.422-17.075-2.379-34.059-2.374-50.24-1.319a477.56,477.56,0,0,0-55.387,7.177c-36.083,6.634-64.84,14.091-98.241,21.051-15.5,3.229-32.014,6.39-50.561,8.973-68.016,9.349-155.249,6.669-240.522,2.826v.615c85.352,3.845,172.654,6.516,240.727-2.842h0c18.582-2.589,35.13-5.755,50.656-8.99,33.39-6.957,62.137-14.413,98.208-21.044a476.137,476.137,0,0,1,55.217-7.156c16.083-1.049,32.964-1.057,49.935,1.308h0c21.245,2.939,39.912,8.86,57.341,14.371,88.6,28.014,157.9,56.011,236.019,67.082,26.96,3.821,56.2,3.07,89.59,1.868h0c55.588-2.114,119.968-13.555,178.088-24.876,16.839-3.276,33.267-6.448,49.405-9.3,39.84-6.988,75.868-11.9,110.117-15.2,31.508-3.038,61.935-5.076,96.263-4.731h0c34.208.31,73.394,3.127,112.2,11.952,57.351,13.107,103.755,36.093,158.4,46.475a318.531,318.531,0,0,0,32.609,4.53A328.557,328.557,0,0,0,1732.3,708.874c88.021-25.589,157.043-75.5,188.666-133.549Z" transform="translate(-0.43 -456.808)" fill="#d8f1fc" fill-rule="evenodd"/>
    <path id="Path_393" data-name="Path 393" d="M1920.965,533.762c-31.284,61.56-103.445,114.779-196.113,141.776a338.251,338.251,0,0,1-115.743,12.346h0a327.644,327.644,0,0,1-32.552-3.966h0c-54.929-9.4-102.031-31.3-158.97-44.59h0c-38.6-8.972-77.493-12.639-111.861-13.993a941.116,941.116,0,0,0-97.38,1.353c-34.778,2.106-71.258,5.936-111.4,12.191h0c-16.249,2.548-32.737,5.479-49.587,8.576-58.046,10.686-121.572,22.346-176.986,25.771-33.221,1.988-62.444,3.825-89.928,1.132-77.1-7.556-147.982-31.326-235.784-56.624-17.373-5.007-35.88-10.452-56.722-13.273a270.887,270.887,0,0,0-49.063-1.7c-20.021.924-38.559,3.154-54.541,5.41-35.782,5.05-64.747,10.6-98.056,15.873-15.44,2.446-31.86,4.871-50.13,6.807C169,637.844,83.968,634.377.633,630.428v.616c83.392,3.95,168.48,7.411,235.669.418h0c18.3-1.939,34.743-4.367,50.206-6.817,33.3-5.273,62.259-10.821,98.032-15.869,15.942-2.25,34.432-4.475,54.4-5.4a269.338,269.338,0,0,1,48.791,1.683h0c20.77,2.811,39.211,8.242,56.524,13.231h0c87.892,25.324,158.856,49.108,236.035,56.672,27.557,2.7,56.858.865,90.167-1.128h0c55.47-3.428,119.06-15.1,177.162-25.793,16.837-3.095,33.313-6.024,49.549-8.57,40.1-6.247,76.53-10.073,111.265-12.176a939.637,939.637,0,0,1,97.227-1.351h0c34.284,1.351,73.086,5.008,111.588,13.957,56.967,13.3,104.1,35.2,159.051,44.607a329.024,329.024,0,0,0,32.7,3.984,339.742,339.742,0,0,0,116.253-12.4c92.016-26.807,163.866-79.4,195.711-140.362Z" transform="translate(-0.43 -425.21)" fill="#d8f1fc" fill-rule="evenodd"/>
    <path id="Path_394" data-name="Path 394" d="M1920.965,495.579h0l-.186.371c-32.1,63.762-106.695,118.927-202.559,146.915a352.015,352.015,0,0,1-115.632,13.271c-11.133-.618-22.034-1.788-32.785-3.436-55.26-8.432-103.105-29.245-159.7-42.738-38.2-9.073-76.618-13.569-110.987-15.962h0c-34.491-2.432-65.821-2.857-98.172-2.029a1015.134,1015.134,0,0,0-112.413,9.15c-16.334,2.244-32.868,4.93-49.7,7.845-58.085,10.073-120.885,21.968-176.227,26.709h0c-33.212,2.783-62.484,4.548-90.713,4.123-74.769-1.125-148.9-23.62-236.09-46.261-17.207-4.467-35.423-9.407-55.709-12.09h0a300.926,300.926,0,0,0-47.647-2.059c-19.575.515-37.741,2.089-53.587,3.637-35.484,3.467-64.654,7.107-97.857,10.694-15.41,1.665-31.731,3.356-49.755,4.644h0c-66.31,4.623-149.183.375-230.61-3.679v-.616c81.393,4.052,164.228,8.305,230.5,3.684,18-1.287,34.307-2.976,49.7-4.639,33.208-3.588,62.382-7.228,97.872-10.7,15.878-1.551,34.08-3.127,53.694-3.643a302.433,302.433,0,0,1,47.885,2.072c20.346,2.691,38.618,7.643,55.877,12.123,87.065,22.609,161.084,45.092,235.748,46.216,28.183.424,57.406-1.34,90.563-4.118,55.3-4.739,118.057-16.627,176.1-26.693,16.851-2.918,33.4-5.606,49.753-7.853h0a1016.6,1016.6,0,0,1,112.577-9.163c32.4-.83,63.775-.4,98.317,2.032,34.442,2.4,72.941,6.906,111.221,16h0c56.554,13.484,104.362,34.29,159.585,42.716h0c10.7,1.642,21.559,2.807,32.644,3.422a350.522,350.522,0,0,0,115.143-13.217c96.745-28.245,171.775-84.239,203.15-148.779Z" transform="translate(-0.43 -393.158)" fill="#d8f1fc" fill-rule="evenodd"/>
    <path id="Path_395" data-name="Path 395" d="M1920.965,452.708v2.136s.052-.105-.187.39c-32.192,66.754-109.653,124.694-209.6,153.934a365.287,365.287,0,0,1-114.989,14.143c-11.142-.448-22.074-1.431-32.874-2.889-55.577-7.456-104.148-27.183-160.344-40.869-37.906-9.2-75.94-14.533-110.386-17.968h0c-34.572-3.477-66.354-5.135-99.126-5.409a898.766,898.766,0,0,0-113.572,6.124c-16.432,1.943-33.014,4.386-49.846,7.12-58.076,9.449-120.077,21.571-175.3,27.625h0c-33.119,3.573-62.671,5.522-91.268,7.115-73.038,4.068-149.636-15.887-236.126-35.845-17.092-3.944-35.082-8.394-54.9-10.95h0a345.752,345.752,0,0,0-46.494-2.435c-19.181.108-37.022,1.03-52.774,1.875-35.2,1.889-64.567,3.619-97.671,5.52h0c-15.357.881-31.564,1.833-49.324,2.473h0c-65.417,2.246-146.064-2.788-225.54-6.941v-.616c79.448,4.151,160.083,9.189,225.487,6.944,17.747-.64,33.944-1.591,49.291-2.471,33.106-1.9,62.479-3.631,97.677-5.521,15.773-.846,33.639-1.769,52.846-1.877a347.253,347.253,0,0,1,46.7,2.448c19.869,2.562,37.906,7.02,55.04,10.974,86.342,19.924,162.8,39.872,235.712,35.811,28.573-1.591,58.1-3.539,91.19-7.108,55.2-6.052,117.173-18.17,175.225-27.615,16.853-2.738,33.456-5.183,49.909-7.129h0a900.3,900.3,0,0,1,113.76-6.135c32.817.275,64.644,1.935,99.264,5.417,34.507,3.441,72.609,8.788,110.581,18,56.148,13.674,104.671,33.393,160.2,40.842h0c10.755,1.452,21.64,2.431,32.735,2.877h0A363.819,363.819,0,0,0,1710.77,608.61c100.873-29.51,178.78-88.324,210.195-155.9" transform="translate(-0.43 -360.64)" fill="#d8f1fc" fill-rule="evenodd"/>
    <path id="Path_396" data-name="Path 396" d="M1920.965,411.173c-31.348,70.659-112.165,132.369-217.24,163.169A378.525,378.525,0,0,1,1589.81,589.3h0q-16.629-.417-32.827-2.333c-55.823-6.473-105.061-25.1-160.813-38.968h0c-37.666-9.334-75.361-15.521-109.932-20.005-34.7-4.526-66.974-7.422-100.211-8.8a814.56,814.56,0,0,0-114.943,3.106c-16.546,1.644-33.211,3.847-50.056,6.405-58.06,8.824-119.261,21.17-174.359,28.537-33.014,4.362-63.138,6.382-91.818,10.1-71.492,9.273-150.068-8.166-235.686-25.41-17.009-3.426-34.8-7.393-54.183-9.826a415.663,415.663,0,0,0-45.516-2.823c-18.811-.3-36.341-.027-51.988.112-34.906.313-64.488.132-97.5.344-15.29.1-31.38.312-48.861.3-64.539-.138-142.962-5.958-220.481-10.205v.616c77.522,4.248,155.94,10.065,220.478,10.2h0c17.486.01,33.58-.2,48.873-.3,33.016-.212,62.6-.031,97.506-.344,15.636-.14,33.153-.413,51.95-.112a414.168,414.168,0,0,1,45.352,2.811h0c19.347,2.428,37.1,6.389,54.079,9.809,85.792,17.279,164.535,34.718,236.171,25.426,28.681-3.72,58.806-5.74,91.821-10.1h0c55.106-7.368,116.317-19.715,174.386-28.541,16.82-2.554,33.46-4.754,49.98-6.4a813.058,813.058,0,0,1,114.731-3.1c33.194,1.376,65.427,4.269,100.08,8.789h0c34.521,4.478,72.162,10.655,109.774,19.976,55.812,13.879,105.109,32.52,160.991,39q16.29,1.9,32.962,2.343A380,380,0,0,0,1704.129,574.9c104.306-30.575,184.766-91.534,216.836-161.5Z" transform="translate(-0.43 -327.552)" fill="#d8f1fc" fill-rule="evenodd"/>
    <path id="Path_397" data-name="Path 397" d="M1920.965,369.028c-31.211,73.792-114.956,138.452-224.276,170.562a394.749,394.749,0,0,1-113.305,15.831c-11.1-.109-22.053-.716-32.929-1.788-56.107-5.5-106.07-23.04-161.427-37.095h0c-37.349-9.455-74.648-16.48-109.284-22.007-34.777-5.571-67.5-9.7-101.158-12.184a749.42,749.42,0,0,0-116.114.076c-16.658,1.343-33.375,3.3-50.223,5.682-58.058,8.2-118.488,20.778-173.473,29.46-32.914,5.15-62.647,10.877-92.36,13.086-73.979,5.5-150.828-.426-235.747-15-16.884-2.9-34.439-6.374-53.346-8.678-14.982-1.839-29.9-2.641-44.325-3.2-18.4-.71-35.6-1.085-51.141-1.651-34.614-1.262-64.395-3.355-97.317-4.831-15.243-.684-31.217-1.21-48.431-1.868-63.677-2.529-139.9-9.131-215.475-13.471v.616c75.557,4.34,151.754,10.939,215.416,13.467h0c17.212.659,33.182,1.185,48.422,1.868,32.927,1.477,62.712,3.57,97.33,4.832,15.542.566,32.734.941,51.137,1.651,14.38.555,29.261,1.354,44.2,3.188h0c18.883,2.3,36.414,5.772,53.276,8.667,85.05,14.6,162.018,20.526,236.111,15.017,29.751-2.212,59.523-7.944,92.479-13.1h0c54.978-8.68,115.4-21.254,173.45-29.456,16.818-2.374,33.506-4.331,50.134-5.672a747.908,747.908,0,0,1,115.881-.075c33.615,2.478,66.3,6.606,101.034,12.17h0c34.6,5.521,71.854,12.538,109.162,21.982,55.427,14.073,105.459,31.626,161.637,37.131,10.92,1.076,21.921,1.685,33.062,1.795a396.222,396.222,0,0,0,113.726-15.887c108.5-31.87,191.869-95.728,223.871-168.793Z" transform="translate(-0.43 -293.978)" fill="#d8f1fc" fill-rule="evenodd"/>
    <path id="Path_398" data-name="Path 398" d="M1920.965,326.09c-30.97,76.985-117.673,144.669-231.322,178.115a412.663,412.663,0,0,1-112.7,16.7h0q-16.63.089-33.01-1.243h0c-56.411-4.522-107.09-20.976-162.051-35.221h0c-37.033-9.576-73.936-17.44-108.646-24.01-34.847-6.616-68.021-11.985-102.107-15.568a698.82,698.82,0,0,0-117.285-2.954c-16.76,1.042-33.529,2.759-50.379,4.957-58.056,7.582-117.714,20.386-172.6,30.382-32.839,5.941-62.8,12.55-92.955,16.077-73.516,8.6-151.551,7.307-235.746-4.6-16.768-2.371-34.077-5.356-52.5-7.53-14.575-1.731-29.08-2.7-43.144-3.572-18-1.12-34.856-2.14-50.293-3.413-34.332-2.833-64.322-6.8-97.133-10.007h0c-15.2-1.448-31.063-2.731-48-4.039C148.285,455.24,74.284,447.859.633,443.432v.617c73.618,4.427,147.571,11.8,210.353,16.732h0c16.928,1.306,32.786,2.589,47.972,4.036,32.818,3.206,62.814,7.175,97.154,10.009,15.447,1.274,32.314,2.294,50.323,3.415,14.037.874,28.514,1.837,43.061,3.565h0c18.408,2.173,35.706,5.156,52.463,7.526,84.333,11.922,162.5,13.213,236.131,4.6,30.187-3.531,60.175-10.145,93.045-16.091h0c54.861-9.992,114.493-22.792,172.525-30.371,16.816-2.194,33.552-3.908,50.278-4.948a697.311,697.311,0,0,1,117.033,2.949c34.046,3.579,67.182,8.942,101.988,15.551,34.682,6.565,71.555,14.422,108.558,23.99,55.042,14.266,105.8,30.733,162.295,35.261q16.455,1.327,33.14,1.248a414.131,414.131,0,0,0,113.094-16.759c112.78-33.19,199.086-100.019,230.916-176.237Z" transform="translate(-0.43 -259.773)" fill="#d8f1fc" fill-rule="evenodd"/>
    <path id="Path_399" data-name="Path 399" d="M1920.965,282.476c-30.654,80.21-120.43,150.874-238.367,185.806a434.372,434.372,0,0,1-112.077,17.574q-16.646.341-33.112-.7h0c-56.706-3.547-108.1-18.913-162.655-33.347-36.728-9.7-73.235-18.4-108.01-26.012-34.925-7.661-68.529-14.311-103.054-18.952-37.751-5.173-76.775-7.795-118.464-5.984h0c-16.852.74-33.683,2.214-50.535,4.233-58.054,6.961-116.939,19.994-171.71,31.305-32.764,6.732-63.016,14.2-93.569,19.07a879.481,879.481,0,0,1-235.738,5.808c-16.652-1.842-33.714-4.338-51.647-6.383-14.157-1.624-28.245-2.752-41.962-3.946-17.592-1.531-34.125-3.194-49.447-5.175-34.041-4.4-64.239-10.292-96.949-15.181h0c-15.149-2.233-30.9-4.254-47.568-6.211C144.135,417.039,72.356,408.879.633,404.37v.617c71.664,4.509,143.378,12.662,205.29,20h0c16.655,1.955,32.39,3.974,47.524,6.2,32.719,4.89,62.927,10.781,96.977,15.185,15.341,1.983,31.894,3.649,49.508,5.182,13.7,1.193,27.778,2.32,41.922,3.943,17.935,2.045,35,4.541,51.652,6.383a880.979,880.979,0,0,0,236.14-5.817c30.573-4.873,60.846-12.345,93.632-19.081h0c54.733-11.3,113.577-24.33,171.591-31.286,16.814-2.014,33.608-3.485,50.422-4.224,41.594-1.807,80.529.811,118.195,5.972h0c34.488,4.636,68.054,11.279,102.941,18.932h0c34.757,7.607,71.246,16.306,107.954,26,54.647,14.459,106.132,29.839,162.932,33.392q16.544,1.04,33.238.7A435.826,435.826,0,0,0,1683,468.839h0c117.018-34.659,206.374-104.418,237.961-183.811Z" transform="translate(-0.43 -225.029)" fill="#d8f1fc" fill-rule="evenodd"/>
    <path id="Path_400" data-name="Path 400" d="M1920.965,237.948c-30.2,83.531-122.992,157.39-245.4,193.682a456.447,456.447,0,0,1-111.478,18.446q-16.633.594-33.2-.154c-57-2.571-109.109-16.849-163.27-31.474-36.422-9.818-72.524-19.359-107.365-28.012-35.014-8.706-69.048-16.583-104-22.335-38.234-6.37-77.691-10.084-119.642-9.015-16.954.439-33.837,1.669-50.69,3.508h0c-58.052,6.339-116.165,19.6-170.832,32.229-32.688,7.523-63.275,15.835-94.172,22.062-73.052,14.726-152.992,22.887-235.732,16.209h0c-16.536-1.292-33.351-3.32-50.806-5.236-13.729-1.516-27.409-2.809-40.769-4.32q-25.781-2.914-48.592-6.935c-33.77-5.971-64.168-13.783-96.777-20.355h0c-15.091-3.018-30.731-5.776-47.134-8.382C139.983,378.1,70.432,369.164.633,364.577v.617c69.713,4.585,139.182,13.511,200.226,23.265h0c16.383,2.6,32.006,5.358,47.078,8.373,32.62,6.575,63.028,14.388,96.809,20.362q22.838,4.04,48.682,6.948c13.361,1.512,27.042,2.8,40.773,4.321h0c17.471,1.918,34.3,3.948,50.851,5.24,82.885,6.689,162.966-1.482,236.145-16.234,30.909-6.23,61.508-14.544,94.21-22.07h0c54.615-12.615,112.671-25.868,170.667-32.2,16.812-1.835,33.654-3.062,50.566-3.5,41.852-1.067,81.215,2.641,119.359,9h0c34.919,5.747,68.917,13.616,103.895,22.313,34.832,8.651,70.925,18.19,107.339,28.006,54.261,14.652,106.472,28.946,163.578,31.522q16.634.755,33.327.155a457.892,457.892,0,0,0,111.83-18.5h0c121.426-36,213.768-108.885,245-191.554Z" transform="translate(-0.43 -189.557)" fill="#d8f1fc" fill-rule="evenodd"/>
    <path id="Path_401" data-name="Path 401" d="M1920.965,192.506c-29.63,86.917-125.465,164.065-252.449,201.745a481.091,481.091,0,0,1-110.869,19.318q-16.633.847-33.285.391h0c-57.3-1.6-110.127-14.787-163.893-29.6h0c-36.107-9.938-71.814-20.32-106.73-30.014-35.084-9.751-69.567-18.855-104.941-25.719-38.726-7.566-78.615-12.374-120.809-12.045h0c-17.056.137-34,1.124-50.856,2.783-58.05,5.717-115.39,19.208-169.955,33.152-32.6,8.314-63.593,17.465-94.765,25.056-73.061,17.79-153.7,30.6-235.749,26.612h0c-16.4-.768-32.977-2.3-49.945-4.089-13.322-1.408-26.573-2.882-39.585-4.694q-25.159-3.564-47.748-8.694h0c-33.51-7.508-64.087-17.274-96.6-25.531h0c-15.042-3.8-30.565-7.3-46.708-10.555A1526.708,1526.708,0,0,0,.633,324.053v.618A1525.191,1525.191,0,0,1,195.787,351.2h0c16.121,3.251,31.622,6.742,46.643,10.54,32.52,8.259,63.109,18.029,96.631,25.539q22.664,5.126,47.862,8.715h0c13.029,1.814,26.3,3.29,39.635,4.7,17,1.789,33.6,3.327,50.031,4.1,82.194,4,162.978-8.83,236.168-26.651,31.176-7.592,62.172-16.743,94.779-25.059h0c54.5-13.927,111.765-27.4,169.743-33.115,16.81-1.655,33.71-2.639,50.721-2.776,42.09-.328,81.881,4.47,120.513,12.018h0c35.34,6.858,69.788,15.954,104.837,25.694,34.917,9.695,70.625,20.076,106.733,30.015,53.876,14.845,106.813,28.052,164.235,29.651q16.707.469,33.405-.392a482.53,482.53,0,0,0,111.2-19.373h0c125.93-37.367,221.292-113.467,252.041-199.467Z" transform="translate(-0.43 -153.356)" fill="#d8f1fc" fill-rule="evenodd"/>
    <path id="Path_402" data-name="Path 402" d="M1920.965,146.171c-28.955,90.381-127.864,170.9-259.495,209.989a508.849,508.849,0,0,1-110.249,20.19q-16.648,1.1-33.387.935c-57.6-.621-111.137-12.724-164.5-27.728-35.8-10.06-71.114-21.279-106.1-32.016-35.163-10.8-70.087-21.126-105.891-29.1-39.218-8.763-79.53-14.663-121.985-15.076-17.158-.165-34.155.579-51.012,2.058-58.048,5.1-114.614,18.815-169.067,34.076-32.536,9.107-63.97,19.1-95.376,28.049-73.211,20.873-154.4,38.315-235.749,37.015h0c-16.271-.245-32.612-1.287-49.093-2.944-12.9-1.3-25.737-2.932-38.4-5.066-16.369-2.78-31.939-6.344-46.909-10.454h0c-33.229-9.091-64.006-20.765-96.414-30.7h0q-22.49-6.884-46.27-12.727A1146.884,1146.884,0,0,0,.633,282.816v.618a1145.384,1145.384,0,0,1,190.092,29.8q23.775,5.849,46.2,12.708c32.42,9.944,63.21,21.621,96.451,30.715,15.013,4.122,30.627,7.7,47.042,10.484h0c12.7,2.139,25.562,3.775,38.5,5.079h0c16.524,1.661,32.907,2.706,49.221,2.952,81.493,1.3,162.829-16.159,236.169-37.069,31.4-8.953,62.836-18.941,95.369-28.047,54.37-15.237,110.849-28.941,168.809-34.029,16.809-1.475,33.757-2.217,50.865-2.053,42.349.412,82.559,6.3,121.68,15.041,35.771,7.969,70.66,18.29,105.79,29.075,34.991,10.74,70.313,21.962,106.125,32.025,53.481,15.038,107.144,27.159,164.873,27.78q16.8.184,33.5-.938a510.277,510.277,0,0,0,110.558-20.245h0c130.507-38.757,228.916-118.153,259.086-207.544Z" transform="translate(-0.43 -116.444)" fill="#d8f1fc" fill-rule="evenodd"/>
    <path id="Path_403" data-name="Path 403" d="M1920.965,98.6c-28.094,93.921-130.122,177.944-266.541,218.485-44.861,13.334-93.589,22.24-143.118,22.543-89.137.545-169.632-25.855-250.116-52.981-80.62-27.172-161.229-55.072-250.448-57.483-112.168-3.031-215.461,34.782-315.33,67.375-99.684,32.532-214.3,61.506-321.208,40.18-51.387-10.25-95.439-31.232-142.3-48.092C160.848,263.064,81.709,246.639.633,240.588v.618c80.919,6.05,159.887,22.445,230.79,47.953,46.925,16.882,91.04,37.882,142.491,48.144,107.15,21.373,222.033-7.615,321.939-40.22,99.722-32.545,202.846-70.335,314.848-67.308,89.076,2.407,169.545,30.283,250.036,57.412,80.628,27.175,161.28,53.6,250.579,53.053,49.666-.3,98.532-9.231,143.518-22.6,135.194-40.177,236.682-122.974,266.131-215.845Z" transform="translate(-0.43 -78.546)" fill="#d8f1fc" fill-rule="evenodd"/>
  </g>
</svg>
