<svg xmlns="http://www.w3.org/2000/svg" width="200.939" height="53.465" viewBox="0 0 200.939 53.465">
  <g id="Group_1" data-name="Group 1" transform="translate(-362 197.001)">
    <path id="Path_1" data-name="Path 1" d="M115.723,0a2.389,2.389,0,0,1,1.143.3,2.141,2.141,0,0,1,.869.86,2.368,2.368,0,0,1,.312,1.166,2.34,2.34,0,0,1-.308,1.155,2.155,2.155,0,0,1-.859.861,2.332,2.332,0,0,1-2.314,0,2.16,2.16,0,0,1-.861-.861,2.333,2.333,0,0,1-.308-1.155,2.36,2.36,0,0,1,.312-1.166A2.147,2.147,0,0,1,114.58.3a2.384,2.384,0,0,1,1.143-.3m0,.385a1.98,1.98,0,0,0-.954.251,1.805,1.805,0,0,0-.726.717,1.933,1.933,0,0,0,0,1.935,1.824,1.824,0,0,0,.719.718,1.934,1.934,0,0,0,1.929,0,1.814,1.814,0,0,0,.717-.718,1.946,1.946,0,0,0,0-1.935,1.79,1.79,0,0,0-.726-.717,1.983,1.983,0,0,0-.952-.251M114.7,3.609h.4V2.547h.236a.515.515,0,0,1,.324.086,2,2,0,0,1,.422.581l.222.394h.494l-.3-.489a2.852,2.852,0,0,0-.37-.5.663.663,0,0,0-.212-.132.775.775,0,0,0,.519-.228.667.667,0,0,0,.2-.478.647.647,0,0,0-.117-.367.625.625,0,0,0-.314-.242,2.1,2.1,0,0,0-.638-.069H114.7Zm.4-1.407h.49a.79.79,0,0,0,.479-.105.357.357,0,0,0,.066-.476.368.368,0,0,0-.17-.131,1.254,1.254,0,0,0-.406-.043h-.459Z" transform="translate(289.969 -197)" fill="#d9000d" fill-rule="evenodd"/>
    <path id="Path_2" data-name="Path 2" d="M22.966,25.758c-8.711-.532-6.924-13.714.194-13.714s7.649,5.843,7.649,5.843l10.623.106V7.583C35.219,3.005,25.257,2.511,18,4.746,4.188,9,0,21.93,0,29.148c0,19.228,16.553,26.4,26.027,26.346a32.992,32.992,0,0,0,15.959-4.356V25.758Zm15.81,23.894h0a34.744,34.744,0,0,1-13.7,2.868c-7.755,0-20.822-7.437-21.991-20.822-.268-3.074.183-18.428,15.283-23.732C23.8,6.056,33.5,5.53,38.669,9.813v5.1l-5.63.107A9.991,9.991,0,0,0,23.9,8.964c-6.8,0-9.455,5.63-9.986,8.074H9.455V43.212h5.226a9.675,9.675,0,1,0-.339-2.656H12.536V19.906h1.487s-.212,6.692,8.287,8.817H38.776Zm-21.3-8.99h0a6.926,6.926,0,1,1,.079.964,6.534,6.534,0,0,1-.079-.964" transform="translate(362 -199.195)" fill="#d9000d" fill-rule="evenodd"/>
    <path id="Path_3" data-name="Path 3" d="M150.073,22.028l.662-1.281h2.8l2.711,10.4-3.416,1.325a19.312,19.312,0,0,0-4.27-6.007,7.222,7.222,0,0,0-4.867-1.876,5.9,5.9,0,0,0-5.315,3.025q-1.857,3.027-1.857,8.7,0,5.588,1.793,8.525a5.822,5.822,0,0,0,5.251,2.915,6.426,6.426,0,0,0,4.376-1.413,4.787,4.787,0,0,0,1.623-3.8,2.979,2.979,0,0,0-.854-2.385,4.425,4.425,0,0,0-2.818-.818V35.765h13.726v3.577a4.473,4.473,0,0,0-2.668,1.325,5.752,5.752,0,0,0-.662,3.291v8.127h-4.419l-1.174-2.517a14.226,14.226,0,0,1-4.078,2.164,14.75,14.75,0,0,1-4.632.685,12.022,12.022,0,0,1-9.777-4.461q-3.672-4.483-3.672-11.882a15.564,15.564,0,0,1,4.227-11.285,14.381,14.381,0,0,1,10.8-4.395,12.9,12.9,0,0,1,3.2.4,15.535,15.535,0,0,1,3.309,1.237" transform="translate(280.354 -209.955)" fill="#d9000d" fill-rule="evenodd"/>
    <path id="Path_4" data-name="Path 4" d="M219.339,8.94h14.61v3.644a3.363,3.363,0,0,0-2.8,1.082q-.716.994-.716,4.572V29.544a6.419,6.419,0,0,0,1.409,4.506,5.463,5.463,0,0,0,4.184,1.524,6.276,6.276,0,0,0,4.855-1.789,7.482,7.482,0,0,0,1.669-5.279V18.238q0-3.688-.715-4.638a3.3,3.3,0,0,0-2.688-1.016V8.94h11.033v3.754a3.351,3.351,0,0,0-2.731.994q-.716.928-.715,4.55v9.518q0,6.559-2.8,9.5t-8.975,2.937q-6.112,0-9.147-2.606-3.013-2.628-3.013-7.884V18.348q0-3.754-.715-4.682a3.427,3.427,0,0,0-2.753-.972Zm17.536-5.12h0a2.491,2.491,0,0,1,.781-1.833,2.532,2.532,0,0,1,1.842-.773,2.463,2.463,0,0,1,1.821.773,2.488,2.488,0,0,1,.759,1.833,2.7,2.7,0,0,1-.715,1.944,2.5,2.5,0,0,1-1.864.729,2.553,2.553,0,0,1-1.864-.773,2.6,2.6,0,0,1-.759-1.9m-7.89,0h0a2.491,2.491,0,0,1,.781-1.833,2.534,2.534,0,0,1,1.843-.773,2.462,2.462,0,0,1,1.82.773,2.485,2.485,0,0,1,.758,1.833,2.658,2.658,0,0,1-.737,1.944,2.469,2.469,0,0,1-1.842.729,2.509,2.509,0,0,1-1.864-.773,2.6,2.6,0,0,1-.759-1.9" transform="translate(222.674 -197.772)" fill="#d9000d" fill-rule="evenodd"/>
    <path id="Path_5" data-name="Path 5" d="M267.409,3.821a2.491,2.491,0,0,1,.781-1.833,2.533,2.533,0,0,1,1.842-.773,2.462,2.462,0,0,1,1.821.773,2.486,2.486,0,0,1,.759,1.833,2.7,2.7,0,0,1-.715,1.944,2.5,2.5,0,0,1-1.864.729,2.553,2.553,0,0,1-1.864-.773,2.6,2.6,0,0,1-.759-1.9" transform="translate(192.14 -197.772)" fill="#d9000d" fill-rule="evenodd"/>
    <path id="Path_6" data-name="Path 6" d="M245.78,3.821a2.491,2.491,0,0,1,.781-1.833,2.534,2.534,0,0,1,1.843-.773,2.462,2.462,0,0,1,1.82.773,2.485,2.485,0,0,1,.758,1.833,2.658,2.658,0,0,1-.737,1.944,2.469,2.469,0,0,1-1.842.729,2.509,2.509,0,0,1-1.864-.773,2.6,2.6,0,0,1-.759-1.9" transform="translate(205.879 -197.772)" fill="#d9000d" fill-rule="evenodd"/>
    <path id="Path_7" data-name="Path 7" d="M308.151,22.392h12.375L330.69,39.883V31.689q0-3.644-.694-4.593a3.32,3.32,0,0,0-2.694-1.06V22.392h10.817v3.754a3.393,3.393,0,0,0-2.757,1.038q-.694.95-.695,4.616V52.957h-5.346l-13.763-23.52v14.2q0,3.644.695,4.616a3.426,3.426,0,0,0,2.714,1.037v3.667H308.151V49.2a3.416,3.416,0,0,0,2.736-1.038q.716-.971.716-4.615V31.8q0-3.644-.716-4.616a3.326,3.326,0,0,0-2.736-1.038Z" transform="translate(166.26 -211.224)" fill="#d9000d" fill-rule="evenodd"/>
    <path id="Path_8" data-name="Path 8" d="M391.794,22.392h24.1L419.8,31.6l-2.674,1.5a17.2,17.2,0,0,0-5.092-5.278,11.117,11.117,0,0,0-6.061-1.745,3.579,3.579,0,0,0-2.589.707q-.653.685-.652,3.2v4.373h1.389q2.252,0,3.03-.906.779-.927.926-3.843h3.073v13.8h-3.073a7.922,7.922,0,0,0-1.241-3.953,3.206,3.206,0,0,0-2.715-1.214h-1.389V45.4q0,2.474.674,3.18a3.735,3.735,0,0,0,2.652.706,11.264,11.264,0,0,0,6.5-2.23,19.084,19.084,0,0,0,5.535-6.184l2.8,1.59-4.4,10.49H391.794V49.2a3.326,3.326,0,0,0,2.672-.994q.695-.949.695-4.66V31.8q0-3.71-.695-4.66a3.231,3.231,0,0,0-2.672-.993Z" transform="translate(113.13 -211.224)" fill="#d9000d" fill-rule="evenodd"/>
    <path id="Path_9" data-name="Path 9" d="M498.793,21.045h2.715l2.5,9.1L501,31.27a13.193,13.193,0,0,0-4-4.749A8.407,8.407,0,0,0,492,24.8a5.276,5.276,0,0,0-3.2.884,2.728,2.728,0,0,0-1.2,2.3q0,2.342,7.661,4.2.84.222,1.3.331,5.262,1.3,7.282,3.379a7.836,7.836,0,0,1,2.021,5.742,10.413,10.413,0,0,1-3.031,7.84A11.13,11.13,0,0,1,494.71,52.4h-1.137v1.9q.148-.023.442-.044a6.949,6.949,0,0,1,1.074-.155,3.592,3.592,0,0,1,2.694,1.06,3.756,3.756,0,0,1,1.052,2.76,3.539,3.539,0,0,1-1.263,2.893,5.461,5.461,0,0,1-3.557,1.038,10.186,10.186,0,0,1-2.672-.4,31.243,31.243,0,0,1-3.7-1.37l.821-1.988a15.82,15.82,0,0,0,2.756,1.237,7.272,7.272,0,0,0,2.231.375,2.144,2.144,0,0,0,1.537-.486,1.89,1.89,0,0,0,.5-1.458,1.616,1.616,0,0,0-.547-1.3,2.333,2.333,0,0,0-1.536-.442c-.141,0-.323.007-.547.022s-.471.066-.778.111V52.206a14.961,14.961,0,0,1-2.757-.707,16.225,16.225,0,0,1-2.673-1.28l-.484,1.943h-2.672l-3.452-11.4,3.366-1.215a17.51,17.51,0,0,0,4.778,6.317,9.565,9.565,0,0,0,6,2.23,5.946,5.946,0,0,0,3.746-1.17,3.5,3.5,0,0,0,1.515-2.8q0-2.429-6.377-4.108-.842-.2-1.305-.331-3.115-.816-4.944-1.457a11.186,11.186,0,0,1-2.589-1.215,7.81,7.81,0,0,1-2.441-2.893,8.907,8.907,0,0,1-.842-3.887,9.159,9.159,0,0,1,2.925-6.957,10.5,10.5,0,0,1,7.471-2.76,11.772,11.772,0,0,1,3.556.53,12.907,12.907,0,0,1,3.3,1.59Z" transform="translate(57.074 -210.032)" fill="#d9000d" fill-rule="evenodd"/>
    <path id="Path_10" data-name="Path 10" d="M132.254,118.324q.436.024.758.07a9.953,9.953,0,0,0,1.4.086c.185,0,.656-.015,1.417-.044q1.709-.067,3.088-.066l1.386-.016a12.2,12.2,0,0,1,1.381.115.6.6,0,0,1,.139.413v1.576l.015.314c0,.031,0,.078-.008.139l-.314.016c-.039,0-.125-.005-.259-.016q-.071-.153-.189-.455l-.311-.546a3.455,3.455,0,0,0-.5-.709,2.074,2.074,0,0,0-.492-.063c-.053,0-.206-.018-.468-.036-.476-.039-.988-.057-1.538-.057-.622,0-1.182.01-1.673.031,0,.128.005.628.005,1.5l-.005,1.281v.96a2.773,2.773,0,0,0,.329.024q1.365,0,1.945-.053a1.923,1.923,0,0,0,.716-.149.8.8,0,0,0,.245-.332,11.224,11.224,0,0,0,.267-1.122l.1-.008h.45q.031.682.031,1.035c0,.536,0,.881-.008,1.033s-.008.274-.008.36c0,.139.008.359.023.662s.024.531.024.677v.17h-.549c-.021-.081-.058-.248-.115-.5a3.134,3.134,0,0,0-.275-.886.574.574,0,0,0-.306-.206,6.283,6.283,0,0,0-1.132-.053c-.772,0-1.35.021-1.739.063v3.425a.41.41,0,0,0,.209.4,6.274,6.274,0,0,0,1.929.159,8.746,8.746,0,0,0,1.814-.159,1.83,1.83,0,0,0,.91-.513,3.908,3.908,0,0,0,.868-1.438c.159-.016.287-.023.389-.023.058,0,.141,0,.254.008l-.039.322-.044.23-.282,1.446-.136.873c-.332.016-.594.024-.79.024q-.428,0-2.291-.074-1.31-.05-3.153-.052-.921,0-2.262.078h-.322l-.925.031v-.533a4.7,4.7,0,0,1,.58-.084,3.723,3.723,0,0,0,1.1-.246,1.7,1.7,0,0,0,.078-.557c0-.089,0-.235-.008-.445l.008-.238-.021-2.884.008-.865-.034-1.224.008-.865-.07-.949a1.421,1.421,0,0,0-.016-.155.374.374,0,0,0-.228-.107c-.057-.008-.133-.024-.23-.044a5.087,5.087,0,0,0-.839-.107c-.1-.005-.206-.016-.335-.031Zm10.88.6-.032-.534h.654l.223-.008c.308-.016.52-.023.638-.023.06,0,.241.005.539.016.065.005.123.008.167.008s.209,0,.483-.016.434-.016.471-.016c.054,0,.133,0,.238.008q1.181,1.075,1.922,1.849t5.428,5.425v-.193l-.031-.889c-.016-.523-.034-.936-.06-1.242s-.042-.667-.047-1.087-.021-.805-.052-1.148c-.06-.672-.092-1.059-.092-1.161a1.125,1.125,0,0,0-.107-.607,1.38,1.38,0,0,0-.737-.254,2.2,2.2,0,0,1-.63-.175l.008-.455.2-.024,1.5-.039,1.674-.055c.112-.005.217-.008.319-.008l.008.5a1.644,1.644,0,0,1-.356.139,3.306,3.306,0,0,0-.557.159,2.368,2.368,0,0,0-.416.27.491.491,0,0,0-.068.285c0,.031.005.139.016.322.005.092.008.309.008.646q.008,1.114.063,1.757c.011.139.018.3.023.468l.086,2.7c.005.188.008.321.008.4v.944l.024.4-.024.416c.021.209.031.335.031.374v.408l-.876.031-.912-.944L151,125.713l-1.3-1.3-.957-.981q-.937-.921-1.7-1.618l-1.25-1.13.071,2.845q.008.259.008.533l-.008.544.047,1c.016.418.044.871.086,1.36a1.593,1.593,0,0,0,.039.279,1.836,1.836,0,0,0,.092.233,5.835,5.835,0,0,0,1.3.162,1.984,1.984,0,0,1,.2.053l.031.643-.3.008c-.165,0-.68-.039-1.553-.117-.813.01-1.357.026-1.629.047s-.418.031-.445.031a1.413,1.413,0,0,1-.254-.031q-.016-.181-.016-.314c0-.057,0-.152.008-.282a2.088,2.088,0,0,1,.353-.039c.031,0,.131.005.3.016a1.716,1.716,0,0,0,.766-.094c.078-.065.123-.238.133-.518.031-.813.047-1.307.047-1.485v-.421l.016-2.489-.024-1.556a4.95,4.95,0,0,0-.115-1.234.663.663,0,0,0-.175-.306,1.814,1.814,0,0,0-.6-.413,5.985,5.985,0,0,0-1.033-.215m23.072.039c.034.149.076.442.123.881s.068.758.068.96a1.036,1.036,0,0,1-.052.285,2.732,2.732,0,0,1-.56-.063,7.9,7.9,0,0,0-.821-1.132,3.776,3.776,0,0,0-1.14-.732,2.945,2.945,0,0,0-1.182-.222,2.893,2.893,0,0,0-2.254,1.15,5.177,5.177,0,0,0-.973,3.417,5.8,5.8,0,0,0,.379,2.071,3.416,3.416,0,0,0,1.137,1.577,2.884,2.884,0,0,0,1.783.57,4.67,4.67,0,0,0,1.054-.131.852.852,0,0,0,.46-.243.65.65,0,0,0,.162-.366,10.106,10.106,0,0,0,.06-1.258q0-.792-.023-1.09a.391.391,0,0,0-.1-.149,1.736,1.736,0,0,0-.311-.11l-.683-.183a.509.509,0,0,1-.277-.131,1.09,1.09,0,0,1-.016-.149,1.183,1.183,0,0,1,.055-.3.706.706,0,0,1,.191-.047c.557,0,1.041.016,1.449.05.144.008.3.013.468.013l1.211-.013.515-.013c.06,0,.233,0,.513.019.005.131.008.243.008.335a.429.429,0,0,1-.055.191,2.832,2.832,0,0,1-.442.2,1.508,1.508,0,0,0-.353.162.333.333,0,0,0-.084.191,8.857,8.857,0,0,0-.024.907c0,.6,0,.959-.005,1.074-.018.379-.026.591-.026.643a.524.524,0,0,1-.076.35,3.625,3.625,0,0,1-1.331.484,11.054,11.054,0,0,1-2.591.272,8.585,8.585,0,0,1-1.8-.165,4.288,4.288,0,0,1-1.3-.486,4.825,4.825,0,0,1-1.232-1.043,4.248,4.248,0,0,1-.766-1.326,6.089,6.089,0,0,1-.353-2.016,5.521,5.521,0,0,1,.52-2.283,4.971,4.971,0,0,1,1.077-1.506,5.067,5.067,0,0,1,1.734-1.07,6.343,6.343,0,0,1,2.267-.4,4.917,4.917,0,0,1,.5.039,6.336,6.336,0,0,1,1.746.23,5.747,5.747,0,0,1,1.349.554m2.152,9.28v-.549c.1-.032.272-.076.51-.131a3.392,3.392,0,0,0,.748-.256,1.316,1.316,0,0,0,.138-.658l-.008-.9.016-1.749-.008-.413c.031-1.012.047-1.532.047-1.564l-.008-1.02.016-.413-.024-.873-.016-.329a1.672,1.672,0,0,0-.055-.246,3.03,3.03,0,0,0-1.025-.183c-.112,0-.2-.008-.269-.016l-.016-.675,2.188.094c.269.011.437.016.5.016q.451,0,1.446-.063c.371-.026.607-.042.7-.047,0,.1.005.178.005.246,0,.086-.005.2-.013.337-.2.07-.439.136-.7.2a5.473,5.473,0,0,0-.648.191,2.679,2.679,0,0,0-.047.575,5.006,5.006,0,0,0,.023.536q-.023,1.3-.023,1.992l.008,2.024-.016,1.028.008,1.532v.29a1,1,0,0,0,.023.178,7.8,7.8,0,0,0,.855.136q.071.008.471.063a2.91,2.91,0,0,1,.031.384c0,.055,0,.141-.008.259a1.125,1.125,0,0,0-.154.008c-.162.01-.256.016-.282.016a1.5,1.5,0,0,1-.2-.024c-.073-.008-.413-.044-1.022-.1l-1.357-.016c-.272,0-.664.024-1.182.073-.337.031-.557.047-.659.053m5.663-9.319-.031-.534h.654l.222-.008c.308-.016.52-.023.638-.023.06,0,.241.005.539.016.065.005.123.008.167.008s.209,0,.484-.016.434-.016.471-.016c.055,0,.133,0,.237.008q1.181,1.075,1.922,1.849t5.428,5.425v-.193l-.031-.889c-.016-.523-.034-.936-.061-1.242s-.041-.667-.047-1.087-.021-.805-.053-1.148c-.06-.672-.091-1.059-.091-1.161a1.125,1.125,0,0,0-.107-.607,1.381,1.381,0,0,0-.737-.254,2.2,2.2,0,0,1-.63-.175l.008-.455.2-.024,1.5-.039,1.674-.055c.112-.005.217-.008.319-.008l.008.5a1.644,1.644,0,0,1-.356.139,3.285,3.285,0,0,0-.557.159,2.375,2.375,0,0,0-.416.27.494.494,0,0,0-.067.285c0,.031,0,.139.016.322,0,.092.008.309.008.646q.008,1.114.063,1.757c.01.139.018.3.023.468l.086,2.7c.005.188.008.321.008.4v.944l.024.4-.024.416c.021.209.031.335.031.374v.408l-.876.031-.912-.944-1.862-1.848-1.3-1.3-.956-.981q-.937-.921-1.7-1.618l-1.249-1.13.071,2.845q.008.259.008.533l-.008.544.047,1c.016.418.044.871.086,1.36a1.592,1.592,0,0,0,.039.279,1.836,1.836,0,0,0,.092.233,5.839,5.839,0,0,0,1.3.162,1.982,1.982,0,0,1,.2.053l.031.643-.3.008c-.165,0-.68-.039-1.553-.117-.813.01-1.357.026-1.629.047s-.418.031-.445.031a1.41,1.41,0,0,1-.254-.031q-.016-.181-.016-.314c0-.057,0-.152.008-.282a2.08,2.08,0,0,1,.353-.039c.031,0,.131.005.3.016a1.716,1.716,0,0,0,.766-.094c.078-.065.123-.238.133-.518.031-.813.047-1.307.047-1.485v-.421l.016-2.489-.023-1.556a4.945,4.945,0,0,0-.115-1.234.663.663,0,0,0-.175-.306,1.816,1.816,0,0,0-.6-.413,5.976,5.976,0,0,0-1.033-.215m13.473-.6c.29.016.544.039.758.07a9.966,9.966,0,0,0,1.4.086c.186,0,.656-.015,1.417-.044,1.14-.045,2.167-.066,3.088-.066l1.386-.016a12.192,12.192,0,0,1,1.38.115.6.6,0,0,1,.138.413v1.576l.016.314c0,.031,0,.078-.008.139l-.313.016q-.059,0-.259-.016-.071-.153-.189-.455l-.311-.546a3.441,3.441,0,0,0-.5-.709,2.061,2.061,0,0,0-.491-.063c-.053,0-.207-.018-.468-.036-.476-.039-.988-.057-1.538-.057-.622,0-1.182.01-1.673.031q0,.192.005,1.5l-.005,1.281v.96a2.769,2.769,0,0,0,.33.024q1.364,0,1.945-.053a1.916,1.916,0,0,0,.716-.149.8.8,0,0,0,.246-.332,11.216,11.216,0,0,0,.266-1.122l.1-.008h.449c.022.455.031.8.031,1.035,0,.536,0,.881-.007,1.033s-.008.274-.008.36c0,.139.008.359.024.662s.024.531.024.677v.17h-.55c-.02-.081-.057-.248-.115-.5a3.13,3.13,0,0,0-.275-.886.571.571,0,0,0-.305-.206,6.289,6.289,0,0,0-1.132-.053c-.772,0-1.349.021-1.739.063v3.425a.41.41,0,0,0,.209.4,6.274,6.274,0,0,0,1.929.159,8.751,8.751,0,0,0,1.814-.159,1.828,1.828,0,0,0,.91-.513,3.9,3.9,0,0,0,.868-1.438c.16-.016.288-.023.39-.023.057,0,.141,0,.253.008l-.039.322-.044.23-.283,1.446-.135.873c-.332.016-.594.024-.79.024q-.428,0-2.29-.074-1.31-.05-3.153-.052-.922,0-2.262.078h-.321l-.926.031v-.533a4.706,4.706,0,0,1,.58-.084,3.724,3.724,0,0,0,1.1-.246,1.68,1.68,0,0,0,.079-.557c0-.089,0-.235-.008-.445l.008-.238-.022-2.884.008-.865-.034-1.224.007-.865-.07-.949a1.525,1.525,0,0,0-.016-.155.374.374,0,0,0-.227-.107c-.058-.008-.134-.024-.23-.044a5.1,5.1,0,0,0-.839-.107c-.1-.005-.206-.016-.335-.031Zm14.551.581v-.659c.266.005.426.011.484.016a22.3,22.3,0,0,0,2.473.11c.152,0,.466-.016.934-.047.338-.026.591-.052.758-.078h.56q.016.561.016.627c-.51.066-.81.11-.9.131a1.174,1.174,0,0,0-.5.241.268.268,0,0,0-.083.2,1.168,1.168,0,0,0,.013.167l.253.667q.268.78.889,2.12l.873,1.977q.252.573.461,1.087l.445-1.087.912-2.528.214-.536c.027-.076.06-.183.1-.322.133-.455.246-.8.335-1.033a1.715,1.715,0,0,0,.134-.578.309.309,0,0,0-.146-.256,1.438,1.438,0,0,0-.727-.217,1.868,1.868,0,0,0-.286-.042c-.117-.011-.222-.026-.313-.042a.887.887,0,0,1-.047-.232,3.405,3.405,0,0,1,.032-.359c.091,0,.355.021.789.063s.86.063,1.273.063a8.594,8.594,0,0,0,1.09-.06c.3-.039.549-.06.738-.065v.248c0,.063,0,.157-.008.282a6.256,6.256,0,0,0-1.158.489.721.721,0,0,0-.207.251,17.846,17.846,0,0,0-.892,2.071l-.981,2.534c-.093.246-.193.5-.3.779s-.228.573-.35.9c-.027.076-.144.382-.361.918l-.076.139c-.225.719-.395,1.218-.507,1.493-.2.01-.33.015-.38.015-.1,0-.233-.005-.4-.015-.055-.152-.113-.309-.168-.468s-.272-.711-.651-1.66l-1.446-3.248-.863-2.092q-.668-1.424-.727-1.524a.818.818,0,0,0-.3-.274,2.086,2.086,0,0,0-.669-.131Zm9.705,9.334h.139a6.608,6.608,0,0,0,1.079-.094l.314-.055c1.192.078,1.948.117,2.264.117a.994.994,0,0,0,.016-.173c0-.071,0-.2-.008-.377-.316-.047-.5-.076-.544-.086a1.385,1.385,0,0,1-.675-.2.346.346,0,0,1-.107-.285,2.051,2.051,0,0,1,.147-.549q.509-1.428.672-1.794h2.926l.6,1.5.305.75a.578.578,0,0,1,.039.206.241.241,0,0,1-.079.175,1.611,1.611,0,0,1-.444.152l-.85.183c-.016.162-.024.335-.024.513l.377-.016,1.3-.063c.178-.011.471-.016.873-.016q.545,0,1.226.055t1.25.055c.005-.078.008-.134.008-.17a2.782,2.782,0,0,0-.039-.382,2.945,2.945,0,0,0-.677-.175.882.882,0,0,1-.453-.151,1.22,1.22,0,0,1-.233-.374,10.23,10.23,0,0,1-.418-.98c-.178-.482-.318-.839-.421-1.08-.173-.4-.377-.915-.618-1.546s-.507-1.281-.808-1.951l-1.327-3.156-.069-.139h-.842l-1.809,4.767-1.546,4.052a1.38,1.38,0,0,1-.308.437,2.409,2.409,0,0,1-.714.2,5.132,5.132,0,0,0-.513.117Zm3.6-4.306,1.109-2.96c.152.316.353.779.6,1.386s.445,1.135.6,1.59l-.19.008q-.321,0-2.113-.023m7.253,3.676a4.317,4.317,0,0,1,.669-.136q.435-.062.51-.063a.665.665,0,0,0,.4-.094,1.281,1.281,0,0,0,.047-.306l-.016-.983.047-1v-.638l.008-.75-.016-.8.031-1.71.007-.774v-.107a4.074,4.074,0,0,0-.1-.886q-.047-.083-.439-.2c-.026-.011-.123-.05-.29-.115a1.926,1.926,0,0,0-.345-.107.956.956,0,0,1-.374-.162c-.011-.133-.016-.235-.016-.308,0-.039,0-.1.008-.183a.285.285,0,0,1,.146-.039q.181,0,1.331.071l1.1-.008.813.016q.53,0,1.357-.06c.162-.013.256-.018.283-.018a.2.2,0,0,1,.162.06.523.523,0,0,1,.06.3.373.373,0,0,1-.084.262.741.741,0,0,1-.34.092l-.952.222c-.026.01-.07.031-.131.06a.8.8,0,0,0-.047.094l-.007.214-.024.483v.223c0,.026,0,.165-.01.421,0,.068-.005.133-.005.2s0,.22.005.413c.008.306.01.575.01.805,0,.267-.007.57-.023.912-.006.128-.008.3-.008.5l-.031,3.637a.353.353,0,0,0,.1.3l.726.029.453-.008.483.008a5.259,5.259,0,0,0,1.932-.285,1.622,1.622,0,0,0,.688-.429,2.234,2.234,0,0,0,.424-.5,4.685,4.685,0,0,0,.371-.889h.246a3.111,3.111,0,0,1,.413.031v.214q0,.549-.139,1.93a2.962,2.962,0,0,1-.107.672,1.709,1.709,0,0,1-.22.031h-.282l-.4.008c-.047,0-.353-.021-.915-.06-.1-.005-.591-.021-1.467-.053s-1.734-.044-2.576-.044l-1.553.044c-.6.016-1.158.042-1.681.081h-.115c-.031,0-.081,0-.149-.008a.859.859,0,0,1-.016-.144,1.407,1.407,0,0,1,.055-.463m9-8.7.332.031a2.084,2.084,0,0,1,.67.131.818.818,0,0,1,.3.274q.059.1.726,1.524l.863,2.092,1.446,3.248q.568,1.423.651,1.66c.055.16.113.317.168.468.172.01.308.015.4.015.05,0,.178-.005.38-.015.112-.275.282-.774.507-1.493l.076-.139c.217-.536.335-.842.361-.918.123-.326.24-.627.35-.9s.209-.533.3-.779l.98-2.534a17.844,17.844,0,0,1,.892-2.071.713.713,0,0,1,.207-.251,6.236,6.236,0,0,1,1.158-.489c.006-.125.008-.22.008-.282v-.248c-.189.005-.434.026-.738.065a8.6,8.6,0,0,1-1.09.06c-.413,0-.839-.021-1.273-.063s-.7-.063-.789-.063a3.484,3.484,0,0,0-.031.359.9.9,0,0,0,.047.232c.092.016.2.031.313.042a1.843,1.843,0,0,1,.285.042,1.438,1.438,0,0,1,.727.217.309.309,0,0,1,.146.256,1.722,1.722,0,0,1-.133.578c-.089.232-.2.578-.335,1.033-.039.139-.073.246-.1.322l-.214.536-.913,2.528-.444,1.087q-.208-.513-.461-1.087l-.873-1.977q-.62-1.341-.889-2.12l-.253-.667a1.168,1.168,0,0,1-.013-.167.268.268,0,0,1,.084-.2,1.176,1.176,0,0,1,.5-.241c.086-.02.387-.065.9-.131q0-.066-.016-.627h-.56q-.251.039-.758.078c-.467.031-.782.047-.934.047a22.307,22.307,0,0,1-2.473-.11c-.057-.005-.217-.01-.483-.016Zm10.942-.581c.29.016.544.039.758.07a9.962,9.962,0,0,0,1.4.086c.186,0,.656-.015,1.417-.044,1.14-.045,2.167-.066,3.088-.066l1.385-.016a12.179,12.179,0,0,1,1.38.115.6.6,0,0,1,.138.413v1.576l.016.314c0,.031,0,.078-.008.139l-.313.016q-.059,0-.259-.016-.071-.153-.189-.455l-.311-.546a3.424,3.424,0,0,0-.5-.709,2.068,2.068,0,0,0-.491-.063c-.052,0-.207-.018-.468-.036-.475-.039-.989-.057-1.538-.057-.622,0-1.181.01-1.673.031,0,.128.006.628.006,1.5l-.006,1.281v.96a2.784,2.784,0,0,0,.33.024q1.364,0,1.945-.053a1.92,1.92,0,0,0,.716-.149.8.8,0,0,0,.246-.332q.066-.169.266-1.122l.1-.008h.449q.031.682.031,1.035c0,.536,0,.881-.008,1.033s-.007.274-.007.36c0,.139.007.359.023.662s.024.531.024.677v.17h-.549c-.021-.081-.057-.248-.115-.5a3.109,3.109,0,0,0-.275-.886.569.569,0,0,0-.305-.206,6.289,6.289,0,0,0-1.132-.053c-.771,0-1.349.021-1.739.063v3.425a.41.41,0,0,0,.209.4,6.278,6.278,0,0,0,1.93.159,8.745,8.745,0,0,0,1.814-.159,1.825,1.825,0,0,0,.91-.513,3.889,3.889,0,0,0,.868-1.438c.16-.016.288-.023.39-.023.057,0,.142,0,.254.008l-.039.322-.045.23-.283,1.446-.136.873c-.332.016-.593.024-.789.024q-.427,0-2.291-.074-1.309-.05-3.153-.052-.921,0-2.262.078h-.321l-.926.031v-.533a4.728,4.728,0,0,1,.581-.084,3.73,3.73,0,0,0,1.1-.246,1.69,1.69,0,0,0,.079-.557c0-.089,0-.235-.008-.445l.008-.238-.022-2.884.008-.865-.033-1.224.007-.865-.07-.949a1.525,1.525,0,0,0-.016-.155.375.375,0,0,0-.228-.107c-.058-.008-.134-.024-.23-.044a5.106,5.106,0,0,0-.84-.107c-.1-.005-.206-.016-.335-.031Z" transform="translate(278.011 -272.041)" fill="#d9000d" fill-rule="evenodd"/>
    <path id="Path_11" data-name="Path 11" d="M472.123,118.462a4.978,4.978,0,0,1,.139.789,11.621,11.621,0,0,1,.092,1.226,1.548,1.548,0,0,1-.031.3l-.076.023-.554-.039-.091-.016a3.927,3.927,0,0,0-.674-1.37,1.839,1.839,0,0,0-1.376-.615,1.72,1.72,0,0,0-1.195.4,1.256,1.256,0,0,0-.442.978,1.346,1.346,0,0,0,.439.941,4.367,4.367,0,0,0,1.828.861,8.947,8.947,0,0,1,1.132.436,3.231,3.231,0,0,1,1.009.664,2.859,2.859,0,0,1,.628.915,3.058,3.058,0,0,1,.172,1.1,3.922,3.922,0,0,1-.269,1.42,2.169,2.169,0,0,1-.468.7,4.64,4.64,0,0,1-.714.539,3.465,3.465,0,0,1-1,.449,5.333,5.333,0,0,1-1.334.139,6.538,6.538,0,0,1-1.281-.154l-.923-.267a1.6,1.6,0,0,1-.484-.191.312.312,0,0,1-.068-.146v-.084c0-.055-.011-.405-.034-1.048-.008-.332-.013-.567-.013-.706v-.29l.706-.016c.246.57.4.915.476,1.033a2.526,2.526,0,0,0,.523.635,2.2,2.2,0,0,0,.687.384,2.506,2.506,0,0,0,.865.143,2.753,2.753,0,0,0,.911-.178,1.666,1.666,0,0,0,.8-.578,1.341,1.341,0,0,0-.222-1.914,6.066,6.066,0,0,0-1.729-.8,8.526,8.526,0,0,1-1.953-.889,2.686,2.686,0,0,1-.861-1.048,2.911,2.911,0,0,1-.314-1.26,2.782,2.782,0,0,1,.876-2.071,3.549,3.549,0,0,1,2.576-.85,6.767,6.767,0,0,1,1.09.131,8.341,8.341,0,0,1,1.158.324" transform="translate(65.725 -271.96)" fill="#d9000d" fill-rule="evenodd"/>
  </g>
</svg>
